<svg width="375" height="812" viewBox="0 0 375 812" fill="none" xmlns="http://www.w3.org/2000/svg">
<rect width="375" height="812" fill="#FAFAFA"/>
<rect x="24.5" y="60.5" width="39" height="39" rx="19.5" stroke="#DFDFDF"/>
<path d="M42 76L38 80M38 80L42 84M38 80L50 80" stroke="#047CEC" stroke-width="1.5" stroke-linecap="round" stroke-linejoin="round"/>
<path d="M153.85 86L150.442 74.8H152.906L154.73 81.056C154.804 81.28 154.868 81.5253 154.922 81.792C154.986 82.048 155.034 82.2987 155.066 82.544C155.108 82.7787 155.14 83.0027 155.162 83.216C155.194 83.4187 155.22 83.5893 155.242 83.728L154.858 83.712C154.954 83.264 155.034 82.8907 155.098 82.592C155.162 82.2827 155.22 82.0107 155.274 81.776C155.338 81.5307 155.412 81.2853 155.498 81.04L157.258 76.416H159.242L160.97 81.04C161.098 81.36 161.199 81.6693 161.274 81.968C161.359 82.256 161.428 82.5387 161.482 82.816C161.535 83.0827 161.588 83.3547 161.642 83.632L161.29 83.696C161.322 83.472 161.343 83.28 161.354 83.12C161.375 82.9493 161.391 82.7947 161.402 82.656C161.423 82.5173 161.444 82.3787 161.466 82.24C161.487 82.0907 161.519 81.92 161.562 81.728C161.604 81.5253 161.668 81.2907 161.754 81.024L163.562 74.8H165.994L162.554 86H160.778L158.01 79.376L158.266 79.408L155.69 86H153.85ZM170.838 86.16C169.974 86.16 169.2 85.9733 168.518 85.6C167.846 85.216 167.312 84.6933 166.918 84.032C166.534 83.3707 166.342 82.6133 166.342 81.76C166.342 80.9067 166.534 80.1547 166.918 79.504C167.312 78.8427 167.846 78.32 168.518 77.936C169.2 77.552 169.974 77.36 170.838 77.36C171.691 77.36 172.454 77.552 173.126 77.936C173.808 78.32 174.342 78.8427 174.726 79.504C175.11 80.1547 175.302 80.9067 175.302 81.76C175.302 82.6133 175.11 83.3707 174.726 84.032C174.342 84.6933 173.808 85.216 173.126 85.6C172.454 85.9733 171.691 86.16 170.838 86.16ZM170.838 84.176C171.254 84.176 171.627 84.0747 171.958 83.872C172.288 83.6587 172.544 83.3707 172.726 83.008C172.918 82.6347 173.014 82.2187 173.014 81.76C173.014 81.2907 172.918 80.8747 172.726 80.512C172.544 80.1387 172.288 79.8507 171.958 79.648C171.627 79.4347 171.254 79.328 170.838 79.328C170.411 79.328 170.032 79.4347 169.702 79.648C169.371 79.8613 169.11 80.1493 168.918 80.512C168.726 80.8747 168.635 81.2907 168.646 81.76C168.635 82.2187 168.726 82.6347 168.918 83.008C169.11 83.3707 169.371 83.6587 169.702 83.872C170.032 84.0747 170.411 84.176 170.838 84.176ZM177.011 86V77.536H179.203L179.283 80.256L178.899 79.696C179.027 79.2587 179.235 78.864 179.523 78.512C179.811 78.1493 180.147 77.8667 180.531 77.664C180.926 77.4613 181.336 77.36 181.763 77.36C181.944 77.36 182.12 77.376 182.291 77.408C182.462 77.44 182.606 77.4773 182.723 77.52L182.115 80.016C181.987 79.952 181.832 79.8987 181.651 79.856C181.47 79.8027 181.283 79.776 181.091 79.776C180.835 79.776 180.595 79.824 180.371 79.92C180.158 80.0053 179.971 80.1333 179.811 80.304C179.651 80.464 179.523 80.656 179.427 80.88C179.342 81.104 179.299 81.3493 179.299 81.616V86H177.011ZM186.187 83.456L185.515 81.584L189.515 77.536H192.507L186.187 83.456ZM184.027 86V74.16H186.299V86H184.027ZM189.755 86L186.715 82.176L188.315 80.896L192.491 86H189.755ZM197.322 86.16C196.458 86.16 195.685 85.9733 195.002 85.6C194.33 85.216 193.797 84.6933 193.402 84.032C193.018 83.3707 192.826 82.6133 192.826 81.76C192.826 80.9067 193.018 80.1547 193.402 79.504C193.797 78.8427 194.33 78.32 195.002 77.936C195.685 77.552 196.458 77.36 197.322 77.36C198.175 77.36 198.938 77.552 199.61 77.936C200.293 78.32 200.826 78.8427 201.21 79.504C201.594 80.1547 201.786 80.9067 201.786 81.76C201.786 82.6133 201.594 83.3707 201.21 84.032C200.826 84.6933 200.293 85.216 199.61 85.6C198.938 85.9733 198.175 86.16 197.322 86.16ZM197.322 84.176C197.738 84.176 198.111 84.0747 198.442 83.872C198.773 83.6587 199.029 83.3707 199.21 83.008C199.402 82.6347 199.498 82.2187 199.498 81.76C199.498 81.2907 199.402 80.8747 199.21 80.512C199.029 80.1387 198.773 79.8507 198.442 79.648C198.111 79.4347 197.738 79.328 197.322 79.328C196.895 79.328 196.517 79.4347 196.186 79.648C195.855 79.8613 195.594 80.1493 195.402 80.512C195.21 80.8747 195.119 81.2907 195.13 81.76C195.119 82.2187 195.21 82.6347 195.402 83.008C195.594 83.3707 195.855 83.6587 196.186 83.872C196.517 84.0747 196.895 84.176 197.322 84.176ZM206.407 86.16C205.789 86.16 205.255 86.0267 204.807 85.76C204.37 85.4827 204.029 85.0933 203.783 84.592C203.549 84.08 203.431 83.4667 203.431 82.752V77.536H205.703V82.384C205.703 82.768 205.767 83.104 205.895 83.392C206.023 83.6693 206.205 83.8827 206.439 84.032C206.674 84.1813 206.962 84.256 207.303 84.256C207.549 84.256 207.778 84.2187 207.991 84.144C208.205 84.0587 208.386 83.9413 208.535 83.792C208.685 83.6427 208.802 83.4667 208.887 83.264C208.973 83.0613 209.015 82.8427 209.015 82.608V77.536H211.287V86H209.127L209.047 84.256L209.463 84.064C209.335 84.4587 209.122 84.816 208.823 85.136C208.525 85.456 208.167 85.7067 207.751 85.888C207.335 86.0693 206.887 86.16 206.407 86.16ZM214.39 86V75.392H216.661V86H214.39ZM212.806 79.568V77.536H218.39V79.568H212.806Z" fill="#1E1E1E"/>
<rect width="375" height="44" fill="#FAFAFA"/>
<path opacity="0.35" d="M338.667 17.833H355.333C356.53 17.833 357.5 18.8034 357.5 20V26C357.5 27.1965 356.53 28.166 355.333 28.166H338.667C337.47 28.166 336.5 27.1965 336.5 26V20C336.5 18.8034 337.47 17.833 338.667 17.833Z" stroke="#1A1C1E"/>
<path opacity="0.4" d="M359 21V25C359.805 24.6612 360.328 23.8731 360.328 23C360.328 22.1269 359.805 21.3388 359 21Z" fill="#1A1C1E"/>
<path d="M338 20.6663C338 19.93 338.597 19.333 339.333 19.333H354.667C355.403 19.333 356 19.93 356 20.6663V25.333C356 26.0694 355.403 26.6663 354.667 26.6663H339.333C338.597 26.6663 338 26.0694 338 25.333V20.6663Z" fill="#1A1C1E"/>
<path fill-rule="evenodd" clip-rule="evenodd" d="M323.331 19.6079C325.547 19.608 327.678 20.4594 329.284 21.9862C329.405 22.1041 329.598 22.1026 329.717 21.9829L330.873 20.8162C330.934 20.7555 330.967 20.6733 330.967 20.5877C330.966 20.5021 330.932 20.4202 330.871 20.3602C326.656 16.3207 320.006 16.3207 315.791 20.3602C315.73 20.4202 315.695 20.502 315.694 20.5876C315.694 20.6732 315.727 20.7555 315.788 20.8162L316.944 21.9829C317.063 22.1028 317.256 22.1043 317.377 21.9862C318.983 20.4593 321.115 19.6079 323.331 19.6079ZM323.331 23.4035C324.548 23.4034 325.722 23.8559 326.625 24.6731C326.747 24.7891 326.939 24.7866 327.058 24.6675L328.213 23.5008C328.274 23.4396 328.307 23.3566 328.306 23.2703C328.305 23.1841 328.27 23.1017 328.208 23.0418C325.46 20.4854 321.204 20.4854 318.456 23.0418C318.394 23.1017 318.358 23.1841 318.357 23.2704C318.357 23.3567 318.39 23.4397 318.451 23.5008L319.606 24.6675C319.725 24.7866 319.917 24.7891 320.039 24.6731C320.941 23.8565 322.114 23.404 323.331 23.4035ZM325.644 25.9572C325.646 26.0438 325.612 26.1272 325.55 26.1878L323.552 28.2034C323.494 28.2627 323.414 28.296 323.331 28.296C323.247 28.296 323.168 28.2627 323.109 28.2034L321.111 26.1878C321.05 26.1271 321.016 26.0437 321.018 25.9572C321.019 25.8707 321.057 25.7887 321.121 25.7308C322.397 24.6519 324.265 24.6519 325.54 25.7308C325.605 25.7888 325.642 25.8707 325.644 25.9572Z" fill="#1A1C1E"/>
<path fill-rule="evenodd" clip-rule="evenodd" d="M309.666 17.6665H308.666C308.114 17.6665 307.666 18.1142 307.666 18.6665V27.3332C307.666 27.8855 308.114 28.3332 308.666 28.3332H309.666C310.218 28.3332 310.666 27.8855 310.666 27.3332V18.6665C310.666 18.1142 310.218 17.6665 309.666 17.6665ZM303.999 19.9998H304.999C305.551 19.9998 305.999 20.4475 305.999 20.9998V27.3332C305.999 27.8854 305.551 28.3332 304.999 28.3332H303.999C303.447 28.3332 302.999 27.8854 302.999 27.3332V20.9998C302.999 20.4475 303.447 19.9998 303.999 19.9998ZM300.332 22.3333H299.332C298.78 22.3333 298.332 22.781 298.332 23.3333V27.3333C298.332 27.8856 298.78 28.3333 299.332 28.3333H300.332C300.884 28.3333 301.332 27.8856 301.332 27.3333V23.3333C301.332 22.781 300.884 22.3333 300.332 22.3333ZM295.666 24.3334H294.666C294.114 24.3334 293.666 24.7811 293.666 25.3334V27.3334C293.666 27.8857 294.114 28.3334 294.666 28.3334H295.666C296.218 28.3334 296.666 27.8857 296.666 27.3334V25.3334C296.666 24.7811 296.218 24.3334 295.666 24.3334Z" fill="#1A1C1E"/>
<path d="M36.2165 29L39.7865 24.38L40.0665 24.562C39.9359 24.702 39.7912 24.814 39.6325 24.898C39.4832 24.982 39.3199 25.0427 39.1425 25.08C38.9745 25.1173 38.7925 25.136 38.5965 25.136C37.9712 25.136 37.4112 24.996 36.9165 24.716C36.4219 24.4267 36.0299 24.0347 35.7405 23.54C35.4605 23.036 35.3205 22.4667 35.3205 21.832C35.3205 21.1693 35.4745 20.5813 35.7825 20.068C36.0905 19.5547 36.5105 19.1487 37.0425 18.85C37.5745 18.5513 38.1812 18.402 38.8625 18.402C39.5532 18.402 40.1599 18.5513 40.6825 18.85C41.2145 19.1487 41.6299 19.5593 41.9285 20.082C42.2365 20.5953 42.3905 21.1833 42.3905 21.846C42.3905 22.2007 42.3532 22.5507 42.2785 22.896C42.2039 23.2413 42.0732 23.6007 41.8865 23.974C41.6999 24.338 41.4385 24.7393 41.1025 25.178L38.1905 29H36.2165ZM38.8625 23.75C39.2265 23.75 39.5485 23.666 39.8285 23.498C40.1085 23.33 40.3325 23.1013 40.5005 22.812C40.6685 22.5227 40.7525 22.1913 40.7525 21.818C40.7525 21.4353 40.6685 21.0993 40.5005 20.81C40.3325 20.5113 40.1039 20.2827 39.8145 20.124C39.5345 19.956 39.2172 19.872 38.8625 19.872C38.5079 19.872 38.1859 19.956 37.8965 20.124C37.6165 20.2827 37.3925 20.5113 37.2245 20.81C37.0565 21.0993 36.9725 21.4353 36.9725 21.818C36.9725 22.1913 37.0519 22.5227 37.2105 22.812C37.3785 23.1013 37.6072 23.33 37.8965 23.498C38.1859 23.666 38.5079 23.75 38.8625 23.75ZM44.4147 29V27.18H46.0247V29H44.4147ZM44.4147 23.246V21.426H46.0247V23.246H44.4147ZM52.8803 29V26.648H47.9103V25.276L52.8103 18.57H54.4483V25.276H55.8903V26.648H54.4483V29H52.8803ZM49.1283 25.878L48.8623 25.276H52.8803V19.886L53.3283 20.026L49.1283 25.878ZM58.599 29V19.97H56.597V18.57H60.237V29H58.599Z" fill="#1A1C1E"/>
<rect x="24" y="698" width="327" height="80" rx="40" fill="white"/>
<rect x="45.5" y="708" width="60" height="60" rx="30" fill="#FAFAFA"/>
<path fill-rule="evenodd" clip-rule="evenodd" d="M75.4997 754.667C84.7044 754.667 92.1663 747.205 92.1663 738C92.1663 728.795 84.7044 721.333 75.4997 721.333C66.2949 721.333 58.833 728.795 58.833 738C58.833 747.205 66.2949 754.667 75.4997 754.667ZM80.2683 731.41L69.8177 734.893C68.5048 735.331 68.5048 737.188 69.8177 737.626L73.6768 738.912C74.1068 739.055 74.4443 739.393 74.5876 739.823L75.8739 743.682C76.3116 744.995 78.1688 744.995 78.6064 743.682L82.0899 733.231C82.4652 732.105 81.3941 731.034 80.2683 731.41Z" fill="#047CEC"/>
<rect x="157.5" y="708" width="60" height="60" rx="30" fill="#FAFAFA"/>
<path d="M195.128 739.736L182.492 746.957C181.159 747.719 179.5 746.756 179.5 745.22V738V730.78C179.5 729.244 181.159 728.281 182.492 729.043L195.128 736.263C196.471 737.031 196.471 738.969 195.128 739.736Z" fill="#047CEC"/>
<rect x="269.5" y="708" width="60" height="60" rx="30" fill="#FAFAFA"/>
<path fill-rule="evenodd" clip-rule="evenodd" d="M295.166 731C295.166 728.607 297.106 726.667 299.5 726.667C301.893 726.667 303.833 728.607 303.833 731V732.667H295.166V731ZM293.166 732.76V731C293.166 727.502 296.002 724.667 299.5 724.667C302.997 724.667 305.833 727.502 305.833 731V732.76C308.301 733.228 310.166 735.396 310.166 738V746C310.166 748.946 307.779 751.333 304.833 751.333H294.166C291.221 751.333 288.833 748.946 288.833 746V738C288.833 735.396 290.699 733.228 293.166 732.76ZM302.166 742C302.166 743.473 300.972 744.667 299.5 744.667C298.027 744.667 296.833 743.473 296.833 742C296.833 740.527 298.027 739.333 299.5 739.333C300.972 739.333 302.166 740.527 302.166 742Z" fill="#047CEC"/>
<path d="M375 599.8H0V599.987H375V599.8Z" fill="#EBEBEB"/>
<path d="M316.92 604.908H297.442V605.095H316.92V604.908Z" fill="#EBEBEB"/>
<path d="M236.745 606.257H230.228V606.445H236.745V606.257Z" fill="#EBEBEB"/>
<path d="M337.425 611.868H323.032V612.055H337.425V611.868Z" fill="#EBEBEB"/>
<path d="M51.5322 606.167H39.3447V606.355H51.5322V606.167Z" fill="#EBEBEB"/>
<path d="M83.1674 606.167H55.5449V606.355H83.1674V606.167Z" fill="#EBEBEB"/>
<path d="M221.505 609.333H151.245V609.52H221.505V609.333Z" fill="#EBEBEB"/>
<path d="M177.75 566.35H32.9322C31.7977 566.348 30.7104 565.896 29.9089 565.093C29.1074 564.29 28.6572 563.202 28.6572 562.068V358.495C28.6671 357.367 29.1216 356.288 29.9221 355.494C30.7225 354.699 31.8042 354.252 32.9322 354.25H177.75C178.886 354.25 179.975 354.701 180.778 355.504C181.581 356.307 182.032 357.397 182.032 358.532V562.068C182.032 563.203 181.581 564.293 180.778 565.096C179.975 565.899 178.886 566.35 177.75 566.35ZM32.9322 354.4C31.8475 354.402 30.8078 354.834 30.0415 355.602C29.2751 356.37 28.8447 357.41 28.8447 358.495V562.068C28.8447 563.152 29.2751 564.193 30.0415 564.96C30.8078 565.728 31.8475 566.161 32.9322 566.162H177.75C178.835 566.161 179.876 565.728 180.643 564.961C181.411 564.193 181.843 563.153 181.845 562.068V358.495C181.843 357.41 181.411 356.369 180.643 355.602C179.876 354.834 178.835 354.402 177.75 354.4H32.9322Z" fill="#EBEBEB"/>
<path d="M339.982 566.35H195.157C194.022 566.348 192.934 565.896 192.132 565.094C191.329 564.291 190.877 563.203 190.875 562.068V358.495C190.887 357.366 191.343 356.288 192.145 355.493C192.946 354.699 194.029 354.252 195.157 354.25H339.982C341.109 354.254 342.189 354.702 342.988 355.496C343.787 356.291 344.24 357.368 344.25 358.495V562.068C344.25 563.201 343.801 564.288 343.001 565.09C342.201 565.893 341.116 566.346 339.982 566.35ZM195.157 354.4C194.072 354.402 193.032 354.834 192.264 355.602C191.497 356.369 191.064 357.41 191.062 358.495V562.068C191.064 563.153 191.497 564.193 192.264 564.961C193.032 565.728 194.072 566.161 195.157 566.162H339.982C341.068 566.161 342.108 565.728 342.876 564.961C343.643 564.193 344.076 563.153 344.077 562.068V358.495C344.076 357.41 343.643 356.369 342.876 355.602C342.108 354.834 341.068 354.402 339.982 354.4H195.157Z" fill="#EBEBEB"/>
<path d="M164.393 407.815C163.223 405.243 160.883 403.255 159.143 403.375C158.85 403.39 158.567 403.484 158.322 403.646C158.078 403.809 157.882 404.034 157.755 404.298C154.59 401.095 150.953 399.123 147.945 399.34C147.257 399.368 146.583 399.547 145.972 399.866C145.361 400.185 144.829 400.636 144.413 401.185C141.015 396.348 136.695 392.935 133.553 392.935C131.768 392.935 130.658 394.045 130.268 395.935C126.788 392.68 123.21 390.685 120.323 390.685C115.718 390.685 114.225 395.755 116.108 402.88C115.358 404.223 111.728 406.098 111.878 408.348H164.58C164.528 408.138 164.46 407.98 164.393 407.815Z" fill="#FAFAFA"/>
<path d="M249.36 377.102C248.452 375.1 246.637 373.555 245.287 373.652C245.06 373.664 244.84 373.736 244.65 373.862C244.46 373.987 244.307 374.161 244.207 374.365C241.755 371.875 238.957 370.345 236.595 370.517C236.059 370.538 235.534 370.677 235.058 370.925C234.582 371.172 234.167 371.523 233.842 371.95C231.21 368.2 227.842 365.522 225.405 365.522C224.025 365.522 223.155 366.385 222.855 367.825C220.147 365.297 217.365 363.752 215.13 363.752C211.552 363.752 210.39 367.69 211.852 373.225C211.267 374.267 208.447 375.722 208.567 377.47H249.517L249.36 377.102Z" fill="#FAFAFA"/>
<path d="M90.7502 388.075C90.4915 388.102 90.2471 388.207 90.049 388.376C89.8509 388.545 89.7084 388.769 89.6402 389.02C86.9327 385.743 83.8802 383.725 81.3902 383.95C80.7953 383.999 80.2226 384.199 79.7256 384.529C79.2285 384.86 78.8233 385.311 78.5477 385.84C75.6152 380.898 71.9477 377.395 69.3677 377.395C67.8677 377.395 67.0277 378.528 66.7652 380.395C63.7652 377.073 60.7652 375.033 58.4252 375.033C55.4852 375.033 54.1877 378.168 54.5927 382.99C53.1752 381.588 51.7877 380.74 50.6552 380.74C49.0802 380.74 48.3452 382.323 48.4727 384.813C48.3382 384.798 48.2023 384.798 48.0677 384.813C45.6677 385.225 44.7527 388.435 45.9002 392.103H95.0252C93.9452 389.77 92.0927 387.955 90.7502 388.075Z" fill="#FAFAFA"/>
<path d="M293.595 442.547C293.298 442.579 293.018 442.699 292.789 442.891C292.561 443.084 292.395 443.34 292.313 443.627C289.215 439.877 285.72 437.56 282.908 437.815C282.227 437.874 281.572 438.104 281.003 438.482C280.434 438.861 279.97 439.377 279.653 439.982C276.293 434.32 272.093 430.307 269.153 430.307C267.473 430.307 266.468 431.605 266.153 433.772C262.755 429.962 259.32 427.63 256.598 427.63C253.23 427.63 251.745 431.222 252.21 436.742C250.59 435.137 248.993 434.192 247.71 434.192C245.91 434.192 245.07 436.007 245.213 438.857C245.057 438.858 244.902 438.871 244.748 438.895C242.003 439.375 240.953 443.05 242.273 447.257H298.523C297.255 444.482 295.133 442.412 293.595 442.547Z" fill="#FAFAFA"/>
<path d="M75.7497 414.497C74.3997 414.602 73.0722 414.782 71.7447 414.985C70.4172 415.187 69.1122 415.45 67.8222 415.772C66.8397 416.027 65.8722 416.297 64.9122 416.65C63.6928 415.764 62.383 415.01 61.0046 414.4C60.1379 414.014 59.2517 413.674 58.3497 413.38C57.4217 413.069 56.4748 412.819 55.5146 412.63L57.7646 414.01C58.5146 414.467 59.2122 414.917 59.9022 415.382C60.5922 415.847 61.2597 416.32 61.9122 416.792C62.5647 417.265 63.1496 417.76 63.7121 418.255L64.3796 418.847L65.3697 418.457C66.4122 418.052 67.6196 417.707 68.7822 417.37C69.9447 417.032 71.1972 416.71 72.4272 416.387C74.8797 415.727 77.3847 415.112 79.8522 414.31C78.4823 414.299 77.1128 414.362 75.7497 414.497Z" fill="#EBEBEB"/>
<path d="M115.26 423.678C113.91 423.79 112.583 423.97 111.255 424.165C109.928 424.36 108.623 424.638 107.333 424.96C106.348 425.201 105.377 425.494 104.423 425.838C103.204 424.952 101.894 424.197 100.515 423.588C99.6604 423.213 98.7754 422.838 97.8604 422.56C96.9325 422.249 95.9855 421.999 95.0254 421.81L97.2754 423.183C98.0254 423.648 98.7229 424.098 99.4129 424.555C100.103 425.013 100.77 425.493 101.423 425.965C102.075 426.438 102.66 426.933 103.223 427.465L103.89 428.058L104.88 427.668C105.923 427.255 107.13 426.918 108.293 426.573C109.455 426.228 110.708 425.913 111.938 425.598C114.39 424.93 116.895 424.315 119.363 423.52C117.994 423.503 116.624 423.556 115.26 423.678Z" fill="#EBEBEB"/>
<path d="M308.85 418.585C307.275 418.713 305.715 418.923 304.163 419.155C302.61 419.388 301.08 419.703 299.565 420.085C298.416 420.369 297.282 420.712 296.168 421.113C294.739 420.084 293.206 419.209 291.593 418.503C290.58 418.06 289.553 417.655 288.48 417.303C287.39 416.936 286.278 416.638 285.15 416.41L287.753 418.023C288.6 418.563 289.44 419.088 290.25 419.635C291.06 420.183 291.84 420.73 292.605 421.278C293.37 421.825 294.053 422.418 294.713 423.003L295.463 423.693L296.625 423.235C297.84 422.755 299.228 422.35 300.615 421.953C302.003 421.555 303.45 421.203 304.89 420.813C307.763 420.063 310.695 419.313 313.59 418.383C312.008 418.368 310.426 418.436 308.85 418.585Z" fill="#EBEBEB"/>
<path d="M248.647 404.905C247.072 405.032 245.512 405.242 243.96 405.475C242.407 405.707 240.877 406.022 239.362 406.405C238.213 406.686 237.079 407.026 235.965 407.425C234.531 406.402 232.996 405.529 231.382 404.822C230.367 404.368 229.328 403.967 228.27 403.622C227.182 403.255 226.073 402.956 224.947 402.73L227.55 404.342C228.397 404.882 229.237 405.407 230.047 405.947C230.857 406.487 231.637 407.05 232.402 407.597C233.167 408.145 233.85 408.737 234.51 409.315L235.26 410.012L236.422 409.555C237.637 409.075 239.025 408.67 240.412 408.272C241.8 407.875 243.24 407.522 244.687 407.132C247.56 406.382 250.485 405.632 253.38 404.695C251.805 404.672 250.222 404.77 248.647 404.905Z" fill="#EBEBEB"/>
<path d="M293.558 400.788C292.598 400.863 291.653 400.99 290.708 401.133C289.763 401.275 288.833 401.463 287.91 401.695C287.213 401.875 286.523 402.07 285.848 402.317C284.976 401.698 284.044 401.168 283.065 400.735C282.447 400.451 281.813 400.201 281.168 399.985C280.507 399.761 279.834 399.578 279.15 399.438L280.733 400.42C281.243 400.75 281.76 401.073 282.233 401.403C282.705 401.733 283.2 402.07 283.665 402.4C284.13 402.73 284.543 403.09 284.948 403.45L285.42 403.87L286.133 403.593C286.883 403.3 287.708 403.053 288.555 402.843C289.403 402.633 290.273 402.37 291.15 402.145C292.898 401.673 294.683 401.238 296.4 400.645C295.451 400.645 294.502 400.693 293.558 400.788Z" fill="#EBEBEB"/>
<path d="M212.25 393.708C211.297 393.79 210.352 393.918 209.407 394.06C208.462 394.203 207.532 394.39 206.61 394.623C205.912 394.803 205.222 394.998 204.54 395.245C203.669 394.624 202.736 394.094 201.757 393.663C201.141 393.379 200.51 393.129 199.867 392.913C199.206 392.69 198.533 392.507 197.85 392.365L199.425 393.348C199.942 393.678 200.452 393.993 200.925 394.323C201.397 394.653 201.892 394.99 202.357 395.328C202.822 395.665 203.235 396.018 203.632 396.37L204.112 396.798L204.817 396.52C205.567 396.228 206.4 395.98 207.247 395.77C208.095 395.56 208.965 395.298 209.842 395.073C211.59 394.6 213.367 394.165 215.13 393.573C214.177 393.573 213.217 393.633 212.25 393.708Z" fill="#EBEBEB"/>
<path d="M326.775 397.285C326.1 397.345 325.44 397.427 324.78 397.532C324.12 397.637 323.467 397.765 322.822 397.93C322.329 398.046 321.843 398.191 321.367 398.365C320.758 397.928 320.104 397.556 319.417 397.255C318.99 397.067 318.555 396.887 318.097 396.737C317.633 396.584 317.159 396.459 316.68 396.362L317.79 397.045C318.15 397.277 318.54 397.502 318.855 397.735C319.17 397.967 319.53 398.2 319.852 398.432C320.175 398.665 320.467 398.92 320.752 399.182L321.082 399.475L321.577 399.28C322.095 399.077 322.687 398.905 323.28 398.74C323.872 398.575 324.487 398.41 325.102 398.252C326.325 397.922 327.57 397.615 328.807 397.217C328.129 397.206 327.451 397.228 326.775 397.285Z" fill="#EBEBEB"/>
<path d="M273.667 377.425C272.992 377.485 272.332 377.575 271.672 377.672C271.012 377.77 270.36 377.905 269.715 378.07C269.223 378.19 268.737 378.335 268.26 378.505C267.652 378.069 267.001 377.697 266.317 377.395C265.882 377.207 265.447 377.035 264.99 376.885C264.525 376.729 264.052 376.602 263.572 376.502L264.682 377.192C265.042 377.417 265.432 377.642 265.747 377.875C266.062 378.107 266.422 378.34 266.745 378.58C267.067 378.82 267.36 379.06 267.645 379.33L267.975 379.63L268.47 379.435C268.987 379.232 269.58 379.052 270.172 378.887C270.765 378.722 271.38 378.557 271.995 378.4C273.217 378.07 274.462 377.762 275.7 377.365C275.022 377.351 274.343 377.371 273.667 377.425Z" fill="#EBEBEB"/>
<path d="M183.225 588.243H168.36V599.8H183.225V588.243Z" fill="#E6E6E6"/>
<path d="M176.55 506.68L222.75 592.75C222.829 592.899 222.863 593.068 222.848 593.236C222.832 593.403 222.768 593.563 222.662 593.695C222.557 593.826 222.415 593.924 222.255 593.976C222.095 594.028 221.922 594.032 221.76 593.988L212.01 591.22C211.882 591.183 211.747 591.176 211.616 591.2C211.485 591.223 211.362 591.278 211.255 591.358C211.149 591.438 211.063 591.542 211.004 591.661C210.945 591.78 210.914 591.912 210.915 592.045V595.795C210.915 595.958 210.87 596.117 210.783 596.255C210.697 596.393 210.573 596.504 210.426 596.575C210.28 596.645 210.116 596.673 209.954 596.654C209.793 596.636 209.639 596.572 209.512 596.47L200.31 589.143C200.147 589.011 199.942 588.944 199.734 588.954C199.525 588.964 199.327 589.049 199.177 589.195L194.64 593.508C194.512 593.629 194.35 593.709 194.176 593.736C194.002 593.763 193.823 593.735 193.665 593.658L183.48 588.603C183.305 588.515 183.105 588.491 182.914 588.533C182.723 588.575 182.552 588.682 182.43 588.835L177.015 595.623C176.938 595.719 176.842 595.798 176.732 595.854C176.623 595.91 176.503 595.941 176.38 595.947C176.257 595.953 176.134 595.932 176.02 595.887C175.906 595.841 175.803 595.771 175.717 595.683L169.282 588.933C169.119 588.77 168.898 588.678 168.667 588.678C168.437 588.678 168.216 588.77 168.052 588.933L161.602 595.383C161.453 595.531 161.256 595.62 161.046 595.633C160.837 595.647 160.629 595.585 160.462 595.458L152.317 589.09C152.17 588.98 151.991 588.921 151.807 588.921C151.624 588.921 151.445 588.98 151.297 589.09L145.11 593.5C144.985 593.588 144.839 593.642 144.686 593.655C144.534 593.668 144.381 593.64 144.243 593.574C144.104 593.509 143.986 593.407 143.9 593.281C143.814 593.155 143.763 593.008 143.752 592.855L143.415 587.8C143.406 587.657 143.362 587.519 143.286 587.398C143.21 587.277 143.105 587.176 142.981 587.106C142.856 587.036 142.716 586.998 142.573 586.996C142.43 586.994 142.289 587.028 142.162 587.095L130.372 593.268C130.21 593.352 130.025 593.382 129.844 593.354C129.663 593.326 129.495 593.241 129.366 593.112C129.236 592.982 129.152 592.815 129.123 592.634C129.095 592.453 129.126 592.268 129.21 592.105L175.035 506.68C175.109 506.544 175.218 506.43 175.352 506.351C175.485 506.272 175.637 506.23 175.792 506.23C175.947 506.23 176.1 506.272 176.233 506.351C176.366 506.43 176.476 506.544 176.55 506.68Z" fill="#F0F0F0"/>
<path d="M174.968 509.425L142.785 561.828C142.373 562.495 143.063 563.275 143.888 563.065L149.55 561.655C149.686 561.615 149.829 561.605 149.969 561.626C150.109 561.648 150.243 561.701 150.36 561.78C150.477 561.86 150.575 561.965 150.646 562.087C150.717 562.21 150.761 562.347 150.773 562.488V563.77C150.793 563.941 150.857 564.104 150.96 564.242C151.063 564.38 151.2 564.489 151.358 564.557C151.516 564.625 151.689 564.651 151.86 564.631C152.031 564.612 152.194 564.548 152.333 564.445L158.1 560.44C158.287 560.313 158.509 560.25 158.735 560.259C158.961 560.269 159.177 560.35 159.353 560.493L162.195 562.855C162.345 562.975 162.525 563.051 162.715 563.076C162.906 563.101 163.099 563.074 163.275 562.998L170.078 560.05C170.272 559.964 170.489 559.939 170.698 559.979C170.907 560.019 171.099 560.123 171.248 560.275L174.683 564.025C174.869 564.219 175.122 564.333 175.391 564.344C175.659 564.355 175.921 564.263 176.123 564.085L180.195 560.335C180.386 560.174 180.628 560.085 180.878 560.085C181.127 560.085 181.369 560.174 181.56 560.335L185.7 563.95C185.874 564.097 186.092 564.182 186.319 564.194C186.546 564.207 186.771 564.145 186.96 564.018L192.323 560.358C192.492 560.249 192.688 560.192 192.889 560.192C193.09 560.192 193.286 560.249 193.455 560.358L197.205 562.653C197.34 562.742 197.495 562.797 197.657 562.812C197.818 562.826 197.981 562.8 198.13 562.736C198.279 562.672 198.409 562.572 198.51 562.445C198.61 562.318 198.677 562.167 198.705 562.008L198.87 559.9C198.894 559.749 198.954 559.605 199.045 559.482C199.135 559.358 199.254 559.258 199.391 559.189C199.528 559.12 199.679 559.085 199.833 559.086C199.986 559.087 200.137 559.124 200.273 559.195L207.173 562.353C208.02 562.735 208.92 561.918 208.463 561.175L176.685 509.425C176.592 509.283 176.464 509.166 176.314 509.085C176.164 509.004 175.997 508.962 175.826 508.962C175.656 508.962 175.488 509.004 175.338 509.085C175.189 509.166 175.061 509.283 174.968 509.425Z" fill="#E6E6E6"/>
<path d="M174.937 500.44L154.425 538.142C154.05 538.825 154.785 539.56 155.595 539.335L158.137 538.622C158.275 538.574 158.421 538.557 158.566 538.574C158.711 538.591 158.85 538.641 158.972 538.72C159.095 538.799 159.197 538.905 159.272 539.029C159.347 539.154 159.393 539.295 159.405 539.44C159.425 539.618 159.494 539.786 159.602 539.928C159.711 540.07 159.856 540.18 160.022 540.246C160.188 540.313 160.369 540.332 160.546 540.304C160.722 540.276 160.888 540.2 161.025 540.085L163.927 537.835C164.123 537.685 164.365 537.608 164.612 537.617C164.858 537.627 165.094 537.723 165.277 537.887L166.687 539.207C166.846 539.348 167.042 539.439 167.251 539.468C167.461 539.497 167.674 539.464 167.865 539.372L171.75 537.467C171.959 537.366 172.195 537.335 172.423 537.381C172.651 537.428 172.857 537.547 173.01 537.722L174.795 539.935C174.89 540.043 175.006 540.132 175.135 540.194C175.265 540.256 175.407 540.291 175.551 540.297C175.695 540.302 175.838 540.278 175.973 540.226C176.107 540.175 176.23 540.096 176.332 539.995L178.402 537.85C178.603 537.654 178.872 537.544 179.152 537.544C179.433 537.544 179.702 537.654 179.902 537.85L182.07 539.995C182.252 540.166 182.489 540.267 182.739 540.28C182.988 540.294 183.235 540.22 183.435 540.07L186.435 537.767C186.617 537.638 186.834 537.568 187.057 537.568C187.281 537.568 187.498 537.638 187.68 537.767L189.315 538.9C189.45 539.001 189.61 539.066 189.777 539.088C189.945 539.11 190.115 539.089 190.273 539.027C190.43 538.964 190.568 538.863 190.675 538.731C190.782 538.6 190.853 538.444 190.882 538.277L190.927 537.677C190.953 537.52 191.017 537.372 191.113 537.245C191.209 537.118 191.334 537.016 191.478 536.949C191.621 536.881 191.78 536.849 191.939 536.856C192.097 536.862 192.252 536.908 192.39 536.987L195.487 538.585C196.312 539.012 197.265 538.232 196.852 537.467L176.737 500.507C176.653 500.345 176.527 500.207 176.373 500.109C176.218 500.011 176.04 499.956 175.857 499.949C175.674 499.942 175.493 499.984 175.331 500.07C175.169 500.156 175.034 500.284 174.937 500.44Z" fill="#F0F0F0"/>
<path d="M316.597 599.072C315.982 595.15 313.245 592.112 310.462 592.322C309.952 592.365 309.456 592.511 309.005 592.752C308.553 592.993 308.156 593.324 307.837 593.725C304.387 588.842 299.587 585.835 294.78 586.165C292.374 586.334 290.1 587.33 288.345 588.985C285.3 581.605 280.095 576.37 275.197 576.37C272.392 576.37 270.127 578.065 268.627 580.87C264.69 575.92 260.017 572.875 255.48 572.875C248.25 572.875 243.48 580.608 243.097 591.468C241.275 593.515 234.69 596.372 233.857 599.8H316.687L316.597 599.072Z" fill="#F0F0F0"/>
<path d="M117.188 593.2C116.714 593.26 116.259 593.426 115.858 593.685C115.457 593.945 115.119 594.292 114.87 594.7C112.028 589.45 107.985 586.202 103.815 586.555C101.611 586.798 99.5861 587.887 98.1679 589.592C95.7679 581.657 91.4179 576.032 87.1804 576.032C84.7504 576.032 82.7404 577.855 81.3679 580.892C78.1129 575.552 74.1604 572.275 70.2379 572.275C65.3704 572.275 61.6654 577.307 59.9329 585.025C58.2829 582.775 56.4004 581.44 54.5254 581.44C51.9229 581.44 49.9204 583.99 48.8929 587.98C48.6592 587.981 48.426 588.001 48.1954 588.04C44.0254 588.707 40.9054 593.86 40.9879 599.755H122.213C121.628 595.915 119.468 593.005 117.188 593.2Z" fill="#E6E6E6"/>
<path d="M104.835 568.232L105.03 556.21L109.14 540.01H105.293L105.585 521.822H93.6226L92.4526 554.62L89.5576 555.347L91.0426 572.732L91.8001 572.792L90.8326 599.8H104.325L104.535 586.885L106.208 568.007L104.835 568.232Z" fill="#F0F0F0"/>
<path d="M62.4603 521.432C55.3728 518.245 52.5003 509.65 60.2703 502.75C68.0403 495.85 55.5228 493.667 65.5203 480.415C75.5178 467.162 89.0853 476.545 92.3552 464.732C95.6252 452.92 108.06 448.345 114.443 462.415C120.825 476.485 120.495 464.38 128.513 478.165C136.53 491.95 115.913 497.792 126.06 504.01C136.208 510.227 148.103 521.057 137.648 527.26C121.898 536.59 135.248 534.542 126.398 544.442C116.213 555.775 111.998 538.39 94.3428 546.407C76.6878 554.425 63.4428 549.527 69.5928 535.772C74.3778 525.047 70.0053 524.822 62.4603 521.432Z" fill="#E6E6E6"/>
<path d="M289.643 573.925L289.425 564.07L284.865 550.795H289.133L288.81 535.893H302.078L303.375 562.773L306.578 563.365L304.935 577.615L304.095 577.668L305.168 599.8H290.205L289.973 589.218L288.113 573.745L289.643 573.925Z" fill="#FAFAFA"/>
<path d="M330.9 551.118C337.65 548.328 340.417 540.813 333 534.805C325.582 528.798 337.537 526.863 327.99 515.305C318.442 503.748 305.49 511.915 302.332 501.595C299.175 491.275 287.332 487.263 281.212 499.57C275.092 511.878 275.422 501.25 267.75 513.25C260.077 525.25 279.795 530.418 270.097 535.855C260.4 541.293 249 550.75 259.02 556.195C274.08 564.348 261.315 562.563 269.812 571.195C279.562 581.103 283.582 565.9 300.465 572.913C317.347 579.925 330.015 575.643 324.105 563.613C319.5 554.275 323.685 554.08 330.9 551.118Z" fill="#F0F0F0"/>
<path d="M187.5 633.67C267.811 633.67 332.917 629.869 332.917 625.18C332.917 620.491 267.811 616.69 187.5 616.69C107.188 616.69 42.082 620.491 42.082 625.18C42.082 629.869 107.188 633.67 187.5 633.67Z" fill="#F5F5F5"/>
<path d="M176.377 449.733C175.297 453.85 174.127 457.915 172.83 461.973C172.2 464.003 171.535 466.03 170.835 468.055C170.145 470.08 169.417 472.098 168.585 474.16L168.382 474.663C168.292 474.888 168.195 475.083 168.097 475.285C167.901 475.659 167.686 476.022 167.452 476.373C167.037 476.986 166.567 477.561 166.05 478.09C165.151 479 164.174 479.831 163.132 480.573C161.25 481.892 159.261 483.051 157.185 484.038C153.227 485.928 149.105 487.452 144.87 488.59L143.287 484.465C145.065 483.483 146.91 482.478 148.672 481.42C150.435 480.363 152.197 479.313 153.862 478.188C155.484 477.134 157.03 475.969 158.49 474.7C159.123 474.152 159.706 473.547 160.23 472.893C160.425 472.641 160.6 472.376 160.755 472.098C160.806 472.007 160.848 471.911 160.882 471.813C160.886 471.778 160.886 471.743 160.882 471.708V471.648L160.935 471.468C162.105 467.598 163.185 463.503 164.302 459.468C165.42 455.433 166.552 451.368 167.722 447.348L176.377 449.733Z" fill="#FFB573"/>
<path d="M178.335 445.36C180.93 450.61 172.627 467.763 172.627 467.763L162 463.548C162.339 458.342 163.348 453.203 165 448.255C167.693 440.785 175.455 439.548 178.335 445.36Z" fill="#407BFF"/>
<path opacity="0.2" d="M178.597 446.028C176.084 445.188 173.534 446.455 171.404 451.278C169.274 456.1 167.999 463.81 168.089 466L172.589 467.793C172.589 467.793 180.389 451.855 178.597 446.028Z" fill="black"/>
<path d="M144.337 484.203L140.212 484.3C139.701 484.314 139.198 484.433 138.734 484.649C138.27 484.865 137.856 485.174 137.516 485.556C137.176 485.938 136.917 486.386 136.757 486.872C136.596 487.357 136.537 487.871 136.582 488.38C136.647 489.033 136.882 489.657 137.263 490.19C137.645 490.724 138.159 491.148 138.756 491.421C139.352 491.693 140.01 491.804 140.663 491.743C141.316 491.682 141.941 491.451 142.477 491.073C143.663 490.254 144.748 489.297 145.71 488.223L144.337 484.203Z" fill="#FFB573"/>
<path d="M143.557 484.195C144.347 485.537 144.976 486.966 145.432 488.455C145.461 488.544 145.521 488.62 145.6 488.669C145.68 488.719 145.774 488.738 145.867 488.725C147.152 488.556 148.39 488.136 149.512 487.487C149.562 487.444 149.599 487.387 149.619 487.323C149.639 487.26 149.641 487.192 149.625 487.127C149.257 485.545 147.712 482.185 146.842 482.17C146.13 482.17 144.397 483.205 143.67 483.67C143.626 483.696 143.589 483.73 143.56 483.771C143.53 483.812 143.51 483.859 143.499 483.908C143.489 483.957 143.489 484.008 143.498 484.057C143.508 484.107 143.528 484.154 143.557 484.195Z" fill="#263238"/>
<path d="M170.632 442.09C170.632 442.09 165.705 461.26 176.632 494.515L209.047 490.578C208.665 485.575 202.59 461.68 204.547 437.658C200.88 437.401 197.2 437.384 193.53 437.605C188.909 437.895 184.309 438.454 179.752 439.278C176.644 439.977 173.595 440.917 170.632 442.09Z" fill="#407BFF"/>
<path d="M185.145 455.635C185.133 455.632 185.121 455.627 185.111 455.62C185.101 455.613 185.093 455.604 185.086 455.593C185.08 455.583 185.076 455.571 185.074 455.559C185.073 455.547 185.074 455.534 185.077 455.523C186.03 452.125 184.515 450.535 182.212 448.113C180.025 445.942 178.157 443.472 176.662 440.778C172.867 433.765 176.565 430.96 179.01 429.108C179.485 428.769 179.933 428.396 180.352 427.99C180.36 427.981 180.37 427.974 180.382 427.969C180.393 427.964 180.405 427.961 180.417 427.961C180.429 427.961 180.441 427.963 180.453 427.967C180.464 427.971 180.474 427.978 180.483 427.986C180.492 427.995 180.499 428.005 180.504 428.016C180.509 428.027 180.512 428.039 180.512 428.051C180.513 428.063 180.511 428.075 180.506 428.087C180.502 428.098 180.495 428.109 180.487 428.118C180.064 428.531 179.61 428.912 179.13 429.258C176.73 431.073 173.13 433.818 176.827 440.688C178.303 443.374 180.154 445.836 182.325 448C184.672 450.46 186.217 452.088 185.235 455.583C185.226 455.599 185.213 455.613 185.197 455.622C185.181 455.631 185.163 455.636 185.145 455.635Z" fill="white"/>
<path d="M190.282 422.252C189.952 426.79 190.072 435.002 193.529 437.605C189.445 439.998 185.787 443.055 182.707 446.65C181.094 444.077 179.789 441.565 179.752 439.277C184.552 437.492 183.982 433.84 182.699 430.502L190.282 422.252Z" fill="#FFB573"/>
<path opacity="0.2" d="M187.192 425.62L182.692 430.495C183.009 431.273 183.259 432.076 183.442 432.895C185.295 432.393 187.642 430 187.597 427.998C187.611 427.187 187.474 426.381 187.192 425.62Z" fill="black"/>
<path d="M174.209 408.58C169.889 411.063 172.987 421.188 175.147 421.968C179.197 423.423 179.572 405.505 174.209 408.58Z" fill="#263238"/>
<path d="M189.997 415.518C190.357 421.563 190.874 425.088 188.219 428.538C184.222 433.728 176.474 431.875 174.314 426.055C172.372 420.805 172.109 411.805 177.697 408.708C178.925 408.014 180.31 407.647 181.72 407.641C183.13 407.635 184.518 407.99 185.751 408.673C186.985 409.356 188.023 410.344 188.766 411.542C189.51 412.74 189.933 414.109 189.997 415.518Z" fill="#FFB573"/>
<path d="M194.295 410.208C194.873 413.718 192.045 423.61 189.48 423.708C186.915 423.805 185.528 418.398 186.195 413.298C183.773 412.885 168.99 414.798 170.865 408.505C172.598 402.7 181.245 405.423 187.148 401.598C187.598 403.9 185.033 405.978 186.308 405.603C191.558 404.05 193.733 407.358 197.4 405.685C197.241 406.619 196.881 407.507 196.345 408.288C195.809 409.069 195.11 409.724 194.295 410.208Z" fill="#263238"/>
<path d="M193.5 421.803C193.181 422.492 192.73 423.112 192.171 423.627C191.613 424.142 190.958 424.541 190.245 424.803C188.34 425.47 187.245 423.798 187.672 421.93C188.055 420.25 189.502 417.873 191.467 418.015C193.432 418.158 194.295 420.108 193.5 421.803Z" fill="#FFB573"/>
<path d="M176.639 494.5C176.639 494.5 165.097 532.818 163.739 551.395C162.329 570.723 157.627 619.585 157.627 619.585L162.367 621.01C162.367 621.01 178.469 576.01 179.099 557.005C179.512 544.563 201.802 491.448 201.802 491.448L176.639 494.5Z" fill="#FFB573"/>
<path d="M157.192 615.595L163.432 618.445C163.543 618.494 163.633 618.58 163.688 618.688C163.742 618.796 163.758 618.919 163.732 619.038L162.577 624.475C162.547 624.607 162.488 624.731 162.404 624.837C162.32 624.943 162.213 625.029 162.092 625.088C161.97 625.148 161.836 625.178 161.701 625.179C161.565 625.179 161.432 625.149 161.309 625.09C159.149 624.063 158.152 623.448 155.407 622.195C153.719 621.445 147.704 618.895 145.372 617.83C143.039 616.765 143.789 614.328 144.839 614.553C149.549 615.565 154.199 616.135 156.134 615.528C156.483 615.421 156.859 615.445 157.192 615.595Z" fill="#263238"/>
<path d="M153.93 614.252C153.946 614.209 153.967 614.166 153.99 614.125C154.027 614.043 154.085 613.974 154.16 613.923C154.234 613.873 154.32 613.844 154.41 613.84C155.16 613.802 156.39 615.595 156.66 615.955C156.678 615.983 156.687 616.015 156.687 616.049C156.687 616.082 156.678 616.115 156.66 616.142C156.643 616.172 156.617 616.195 156.586 616.209C156.555 616.222 156.52 616.225 156.487 616.217C155.737 616.067 154.335 615.7 153.982 614.965C153.923 614.857 153.888 614.737 153.879 614.614C153.87 614.492 153.887 614.368 153.93 614.252ZM156.09 615.79C155.542 615.04 154.785 614.17 154.425 614.185C154.387 614.185 154.342 614.185 154.297 614.282C154.247 614.362 154.216 614.453 154.208 614.547C154.2 614.641 154.215 614.735 154.252 614.822C154.722 615.364 155.377 615.709 156.09 615.79Z" fill="#407BFF"/>
<path d="M155.685 613.383L155.752 613.255C155.821 613.165 155.918 613.1 156.028 613.07C156.138 613.04 156.254 613.047 156.36 613.09C156.469 613.125 156.571 613.183 156.657 613.259C156.744 613.335 156.813 613.428 156.862 613.533C157.267 614.365 156.667 616.038 156.645 616.105C156.636 616.135 156.618 616.162 156.594 616.182C156.57 616.202 156.541 616.215 156.51 616.218C156.479 616.223 156.447 616.219 156.418 616.207C156.389 616.195 156.363 616.176 156.345 616.15C155.94 615.61 155.422 614.058 155.685 613.383ZM156.435 615.633C156.665 615.006 156.707 614.326 156.555 613.675C156.526 613.614 156.485 613.559 156.435 613.514C156.385 613.469 156.326 613.435 156.262 613.413C156.097 613.36 156.052 613.413 156.037 613.45C155.82 613.75 156.082 614.943 156.435 615.64V615.633Z" fill="#407BFF"/>
<path d="M176.639 494.5C176.639 494.5 171.839 509.5 170.347 516.46C173.392 516.723 187.687 521.088 190.544 522.835C192.292 519.663 200.774 491.568 200.774 491.568L176.639 494.5Z" fill="#263238"/>
<path opacity="0.2" d="M191.648 501.873C190.763 505.225 189.6 513.49 192.105 518.868C193.223 515.695 194.685 511.165 196.103 506.71C194.648 503.695 192.293 499.42 191.648 501.873Z" fill="black"/>
<path d="M170.25 514.158C169.813 515.17 169.559 516.252 169.5 517.353C171.84 517.803 187.147 522.55 189.96 524.043C191.325 523.038 191.527 520.87 191.602 520.9C191.677 520.93 178.89 515.35 170.25 514.158Z" fill="#407BFF"/>
<path opacity="0.2" d="M170.25 514.158C169.813 515.17 169.559 516.252 169.5 517.353C171.84 517.803 187.147 522.55 189.96 524.043C191.325 523.038 191.527 520.87 191.602 520.9C191.677 520.93 178.89 515.35 170.25 514.158Z" fill="white"/>
<path d="M185.557 493.435C185.557 493.435 203.864 542.65 212.999 558.64C222.689 575.665 263.099 544.263 263.099 544.263L259.469 540.46C259.469 540.46 235.762 550.75 226.394 550C217.184 532.75 209.054 490.57 209.054 490.57L185.557 493.435Z" fill="#FFB573"/>
<path d="M184.965 493.503C184.965 493.503 193.567 515.68 195.69 522.453C198.472 521.178 213.412 517.953 216.757 518.05C216.712 514.42 209.055 490.578 209.055 490.578L184.965 493.503Z" fill="#263238"/>
<path d="M202.162 493.54C202.142 493.539 202.123 493.531 202.107 493.52C202.091 493.508 202.079 493.491 202.072 493.473C200.054 486.948 195.592 481.99 191.654 477.618C186.877 472.308 182.752 467.725 183.404 461.583C183.877 456.948 185.654 454.218 187.237 451.833C189.487 448.398 191.257 445.683 187.792 439.03C182.587 429.055 188.212 424.203 190.327 422.38C190.552 422.194 190.767 421.996 190.972 421.788C190.98 421.779 190.99 421.773 191.001 421.768C191.012 421.764 191.024 421.761 191.035 421.761C191.047 421.761 191.059 421.764 191.07 421.768C191.081 421.773 191.091 421.779 191.099 421.788C191.117 421.806 191.126 421.83 191.126 421.855C191.126 421.88 191.117 421.905 191.099 421.923C190.964 422.073 190.732 422.275 190.432 422.538C188.347 424.33 182.812 429.115 187.942 438.963C191.452 445.713 189.652 448.465 187.379 451.953C185.812 454.345 184.042 457.053 183.569 461.635C182.947 467.695 187.049 472.255 191.819 477.528C195.764 481.915 200.242 486.888 202.274 493.458C202.278 493.469 202.279 493.481 202.278 493.493C202.277 493.505 202.273 493.516 202.268 493.526C202.262 493.537 202.254 493.546 202.245 493.554C202.236 493.561 202.225 493.567 202.214 493.57L202.162 493.54Z" fill="white"/>
<path d="M192.18 421.833C192.141 421.963 192.075 422.082 191.985 422.183C191.895 422.285 191.784 422.364 191.659 422.417C191.535 422.47 191.4 422.495 191.265 422.489C191.129 422.484 190.997 422.448 190.877 422.386C190.757 422.323 190.653 422.234 190.571 422.126C190.49 422.018 190.433 421.893 190.406 421.761C190.378 421.628 190.381 421.492 190.412 421.36C190.444 421.228 190.505 421.106 190.59 421C190.691 420.752 190.887 420.553 191.133 420.446C191.38 420.339 191.659 420.334 191.91 420.43C192.129 420.582 192.281 420.814 192.331 421.076C192.382 421.339 192.327 421.61 192.18 421.833Z" fill="white"/>
<path d="M200.298 493.362L206.271 492.295C206.396 492.272 206.525 492.301 206.629 492.373C206.734 492.446 206.805 492.557 206.828 492.683L207.32 495.437L200.402 496.673L199.91 493.919C199.899 493.857 199.9 493.793 199.913 493.732C199.927 493.67 199.952 493.612 199.988 493.56C200.024 493.508 200.07 493.464 200.123 493.43C200.176 493.396 200.236 493.373 200.298 493.362Z" fill="white"/>
<path d="M194.76 520.323C194.877 521.417 195.19 522.481 195.682 523.465C197.932 522.715 213.607 519.288 216.787 519.198C217.485 517.653 216.592 515.665 216.667 515.658C216.742 515.65 202.83 517.12 194.76 520.323Z" fill="#407BFF"/>
<path opacity="0.2" d="M194.76 520.323C194.877 521.417 195.19 522.481 195.682 523.465C197.932 522.715 213.607 519.288 216.787 519.198C217.485 517.653 216.592 515.665 216.667 515.658C216.742 515.65 202.83 517.12 194.76 520.323Z" fill="white"/>
<path d="M263.49 545.613L258.24 541.195C258.148 541.115 258.086 541.007 258.063 540.887C258.04 540.768 258.057 540.644 258.112 540.535L260.685 535.608C260.749 535.489 260.839 535.385 260.949 535.306C261.059 535.227 261.185 535.173 261.319 535.149C261.452 535.125 261.589 535.132 261.72 535.169C261.85 535.205 261.971 535.271 262.072 535.36C263.872 536.928 264.675 537.79 266.977 539.733C268.402 540.925 273.51 544.983 275.467 546.633C277.425 548.283 276.052 550.435 275.1 549.933C270.84 547.683 266.512 545.898 264.487 545.965C264.123 545.973 263.768 545.848 263.49 545.613Z" fill="#263238"/>
<path d="M266.249 547.75L266.159 547.855C266.101 547.923 266.026 547.974 265.942 548.003C265.857 548.032 265.767 548.038 265.679 548.02C264.929 547.848 264.247 545.77 264.112 545.388C264.101 545.355 264.1 545.319 264.109 545.286C264.118 545.252 264.138 545.222 264.164 545.2C264.192 545.182 264.225 545.172 264.258 545.172C264.291 545.172 264.324 545.182 264.352 545.2C265.102 545.56 266.287 546.28 266.429 547.075C266.448 547.194 266.442 547.315 266.411 547.432C266.38 547.548 266.325 547.656 266.249 547.75ZM264.584 545.688C264.907 546.573 265.409 547.6 265.754 547.683C265.783 547.688 265.813 547.685 265.841 547.674C265.869 547.664 265.893 547.646 265.912 547.623C265.98 547.558 266.033 547.478 266.064 547.39C266.095 547.301 266.105 547.206 266.092 547.113C266.032 546.73 265.499 546.25 264.599 545.718L264.584 545.688Z" fill="#407BFF"/>
<path d="M264.337 548.14C264.313 548.182 264.28 548.218 264.24 548.245C264.151 548.318 264.04 548.358 263.925 548.358C263.81 548.358 263.699 548.318 263.61 548.245C263.515 548.183 263.433 548.101 263.371 548.006C263.309 547.91 263.268 547.802 263.25 547.69C263.077 546.775 264.105 545.327 264.15 545.26C264.169 545.235 264.194 545.215 264.223 545.203C264.252 545.191 264.284 545.188 264.315 545.192C264.344 545.197 264.372 545.21 264.396 545.228C264.419 545.246 264.438 545.27 264.45 545.298C264.697 545.935 264.75 547.57 264.337 548.14ZM264.225 545.77C263.836 546.312 263.614 546.956 263.587 547.622C263.598 547.689 263.622 547.753 263.658 547.809C263.694 547.866 263.742 547.915 263.797 547.952C263.94 548.05 264 548.005 264.022 547.952C264.315 547.75 264.375 546.535 264.225 545.77Z" fill="#407BFF"/>
<path d="M181.095 418.3C181.155 418.788 180.945 419.215 180.63 419.253C180.315 419.29 180 418.93 179.94 418.443C179.88 417.955 180.09 417.52 180.412 417.483C180.735 417.445 181.035 417.813 181.095 418.3Z" fill="#263238"/>
<path d="M175.575 418.967C175.635 419.462 175.417 419.89 175.102 419.927C174.787 419.965 174.472 419.597 174.412 419.11C174.352 418.622 174.57 418.195 174.885 418.157C175.2 418.12 175.5 418.48 175.575 418.967Z" fill="#263238"/>
<path d="M177.359 418.998C176.958 420.574 176.342 422.088 175.529 423.498C175.893 423.694 176.296 423.81 176.709 423.836C177.122 423.861 177.536 423.797 177.922 423.648L177.359 418.998Z" fill="#ED893E"/>
<path d="M179.49 424.795C179.455 424.795 179.421 424.782 179.394 424.759C179.368 424.735 179.351 424.703 179.348 424.668C179.345 424.649 179.347 424.63 179.352 424.612C179.358 424.594 179.367 424.577 179.378 424.562C179.39 424.548 179.405 424.536 179.422 424.527C179.438 424.518 179.456 424.512 179.475 424.51C180.09 424.454 180.682 424.253 181.204 423.923C181.726 423.593 182.161 423.144 182.475 422.613C182.483 422.595 182.495 422.579 182.509 422.566C182.523 422.553 182.54 422.543 182.558 422.537C182.576 422.531 182.596 422.528 182.615 422.53C182.634 422.531 182.653 422.536 182.67 422.545C182.703 422.564 182.728 422.594 182.74 422.63C182.753 422.666 182.752 422.705 182.738 422.74C182.408 423.315 181.945 423.801 181.387 424.159C180.83 424.517 180.195 424.735 179.535 424.795H179.49Z" fill="#263238"/>
<path d="M182.513 416.32C182.473 416.32 182.434 416.312 182.398 416.296C182.362 416.281 182.33 416.258 182.303 416.23C182.059 415.959 181.754 415.75 181.414 415.619C181.074 415.489 180.707 415.441 180.345 415.48C180.274 415.483 180.205 415.461 180.15 415.417C180.094 415.373 180.057 415.31 180.044 415.241C180.031 415.171 180.044 415.1 180.08 415.039C180.116 414.978 180.173 414.932 180.24 414.91C180.696 414.852 181.158 414.904 181.59 415.061C182.022 415.217 182.41 415.474 182.723 415.81C182.775 415.866 182.805 415.94 182.805 416.016C182.805 416.093 182.775 416.167 182.723 416.223C182.667 416.28 182.592 416.315 182.513 416.32Z" fill="#263238"/>
<path d="M172.89 417.37H172.792C172.72 417.344 172.661 417.292 172.627 417.223C172.594 417.154 172.588 417.075 172.612 417.003C172.752 416.565 172.995 416.167 173.32 415.842C173.644 415.517 174.042 415.275 174.48 415.135C174.517 415.125 174.555 415.122 174.593 415.128C174.631 415.133 174.668 415.146 174.701 415.165C174.734 415.185 174.762 415.211 174.785 415.242C174.808 415.273 174.824 415.308 174.832 415.345C174.851 415.42 174.839 415.498 174.8 415.564C174.76 415.63 174.697 415.678 174.622 415.698C174.268 415.805 173.946 415.998 173.685 416.26C173.423 416.521 173.23 416.843 173.122 417.198C173.103 417.244 173.071 417.285 173.03 417.316C172.989 417.346 172.941 417.365 172.89 417.37Z" fill="#263238"/>
<path d="M209.55 441.895C211.38 445.495 212.985 449.058 214.485 452.778C215.235 454.638 215.94 456.528 216.57 458.455C217.253 460.45 217.817 462.483 218.257 464.545C218.362 465.093 218.46 465.663 218.542 466.255C218.629 466.919 218.679 467.588 218.692 468.258C218.698 469.414 218.414 470.554 217.867 471.573C217.376 472.473 216.696 473.256 215.872 473.868C214.699 474.724 213.369 475.341 211.957 475.683C210.835 475.964 209.691 476.152 208.537 476.245C204.389 476.516 200.224 476.188 196.17 475.27L196.567 470.875L199.365 470.635C200.302 470.545 201.232 470.433 202.155 470.328C203.939 470.119 205.71 469.806 207.457 469.39C208.226 469.199 208.978 468.949 209.707 468.64C210.181 468.489 210.615 468.233 210.975 467.89C211.027 467.808 210.975 467.815 210.84 467.965C210.74 468.117 210.674 468.288 210.645 468.468C210.645 468.505 210.645 468.468 210.645 468.415V468.31V468.093L210.547 467.575C210.457 467.208 210.367 466.825 210.255 466.428C209.797 464.83 209.19 463.098 208.507 461.388C207.825 459.678 207.105 457.938 206.34 456.213C204.84 452.763 203.212 449.26 201.622 445.878L209.55 441.895Z" fill="#FFB573"/>
<path d="M198.75 471.948L196.222 468.693C195.907 468.29 195.512 467.956 195.063 467.712C194.614 467.467 194.12 467.317 193.61 467.271C193.101 467.224 192.588 467.283 192.102 467.442C191.616 467.601 191.168 467.859 190.785 468.198C190.299 468.638 189.938 469.198 189.736 469.821C189.535 470.445 189.5 471.111 189.636 471.752C189.772 472.393 190.073 472.987 190.51 473.476C190.948 473.964 191.505 474.329 192.127 474.535C193.49 474.998 194.902 475.303 196.335 475.443L198.75 471.948Z" fill="#FFB573"/>
<path d="M204.547 437.658C213.877 438.948 216.795 454.908 216.795 454.908L206.415 460.323C203.112 456.919 200.295 453.075 198.045 448.9C194.362 441.948 198.345 436.795 204.547 437.658Z" fill="#407BFF"/>
<rect x="24" y="132" width="327" height="100" rx="4" fill="white"/>
<rect x="36" y="144" width="303" height="76" rx="4" fill="#FAFAFA"/>
<path d="M141.567 194.224C139.882 194.224 138.346 193.883 136.959 193.2C135.594 192.517 134.463 191.536 133.567 190.256L136.479 187.056C137.354 188.016 138.164 188.677 138.911 189.04C139.658 189.381 140.49 189.552 141.407 189.552C142.09 189.552 142.698 189.413 143.231 189.136C143.764 188.859 144.18 188.475 144.479 187.984C144.799 187.472 144.959 186.907 144.959 186.288C144.959 185.648 144.799 185.083 144.479 184.592C144.18 184.08 143.764 183.675 143.231 183.376C142.719 183.077 142.122 182.928 141.439 182.928C140.948 182.928 140.49 182.971 140.063 183.056C139.636 183.141 139.178 183.291 138.687 183.504C138.218 183.696 137.652 183.984 136.991 184.368L134.687 181.296L136.063 171.408H148.927V175.984H138.655L140.063 174.192L139.007 181.296L137.087 180.656C137.492 180.293 137.983 179.973 138.559 179.696C139.156 179.419 139.796 179.195 140.479 179.024C141.162 178.832 141.844 178.736 142.527 178.736C143.935 178.736 145.194 179.067 146.303 179.728C147.434 180.368 148.33 181.264 148.991 182.416C149.652 183.568 149.983 184.891 149.983 186.384C149.983 187.856 149.61 189.189 148.863 190.384C148.116 191.557 147.114 192.496 145.855 193.2C144.596 193.883 143.167 194.224 141.567 194.224ZM155.701 194.352C154.827 194.352 154.144 194.107 153.653 193.616C153.184 193.125 152.949 192.421 152.949 191.504C152.949 190.651 153.205 189.957 153.717 189.424C154.229 188.891 154.891 188.624 155.701 188.624C156.576 188.624 157.259 188.88 157.749 189.392C158.24 189.883 158.485 190.587 158.485 191.504C158.485 192.336 158.229 193.019 157.717 193.552C157.205 194.085 156.533 194.352 155.701 194.352ZM170.608 194.32C168.603 194.32 166.886 193.861 165.456 192.944C164.048 192.027 162.971 190.715 162.224 189.008C161.478 187.28 161.104 185.211 161.104 182.8C161.104 180.389 161.478 178.331 162.224 176.624C162.971 174.896 164.048 173.573 165.456 172.656C166.886 171.739 168.603 171.28 170.608 171.28C172.614 171.28 174.331 171.739 175.76 172.656C177.19 173.573 178.278 174.896 179.024 176.624C179.771 178.331 180.144 180.389 180.144 182.8C180.144 185.211 179.771 187.28 179.024 189.008C178.278 190.715 177.19 192.027 175.76 192.944C174.331 193.861 172.614 194.32 170.608 194.32ZM170.608 189.712C171.995 189.712 173.062 189.115 173.808 187.92C174.576 186.725 174.96 185.019 174.96 182.8C174.96 180.517 174.576 178.768 173.808 177.552C173.062 176.315 171.995 175.696 170.608 175.696C169.222 175.696 168.144 176.315 167.376 177.552C166.63 178.768 166.256 180.517 166.256 182.8C166.256 185.019 166.63 186.725 167.376 187.92C168.144 189.115 169.222 189.712 170.608 189.712ZM192.202 194.32C190.197 194.32 188.479 193.861 187.05 192.944C185.642 192.027 184.565 190.715 183.818 189.008C183.071 187.28 182.698 185.211 182.698 182.8C182.698 180.389 183.071 178.331 183.818 176.624C184.565 174.896 185.642 173.573 187.05 172.656C188.479 171.739 190.197 171.28 192.202 171.28C194.207 171.28 195.925 171.739 197.354 172.656C198.783 173.573 199.871 174.896 200.618 176.624C201.365 178.331 201.738 180.389 201.738 182.8C201.738 185.211 201.365 187.28 200.618 189.008C199.871 190.715 198.783 192.027 197.354 192.944C195.925 193.861 194.207 194.32 192.202 194.32ZM192.202 189.712C193.589 189.712 194.655 189.115 195.402 187.92C196.17 186.725 196.554 185.019 196.554 182.8C196.554 180.517 196.17 178.768 195.402 177.552C194.655 176.315 193.589 175.696 192.202 175.696C190.815 175.696 189.738 176.315 188.97 177.552C188.223 178.768 187.85 180.517 187.85 182.8C187.85 185.019 188.223 186.725 188.97 187.92C189.738 189.115 190.815 189.712 192.202 189.712Z" fill="#1E1E1E"/>
<path d="M215.199 190.88L214.019 188.48L218.979 183.38H223.199L215.199 190.88ZM212.119 194V179.2H215.319V194H212.119ZM219.319 194L215.579 189.16L217.839 187.4L223.099 194H219.319ZM224.619 194V183.38H227.659L227.759 185.3L227.339 185.32C227.499 184.973 227.699 184.667 227.939 184.4C228.192 184.133 228.472 183.913 228.779 183.74C229.099 183.553 229.425 183.413 229.759 183.32C230.105 183.227 230.452 183.18 230.799 183.18C231.319 183.18 231.792 183.26 232.219 183.42C232.645 183.58 233.019 183.84 233.339 184.2C233.659 184.547 233.912 185.02 234.099 185.62L233.599 185.58L233.759 185.26C233.932 184.94 234.152 184.653 234.419 184.4C234.699 184.133 235.005 183.913 235.339 183.74C235.672 183.553 236.019 183.413 236.379 183.32C236.739 183.227 237.085 183.18 237.419 183.18C238.259 183.18 238.959 183.347 239.519 183.68C240.079 184 240.499 184.487 240.779 185.14C241.072 185.793 241.219 186.587 241.219 187.52V194H237.999V187.78C237.999 187.353 237.939 187 237.819 186.72C237.699 186.44 237.519 186.233 237.279 186.1C237.052 185.953 236.765 185.88 236.419 185.88C236.139 185.88 235.879 185.927 235.639 186.02C235.412 186.113 235.212 186.24 235.039 186.4C234.879 186.56 234.752 186.747 234.659 186.96C234.565 187.173 234.519 187.413 234.519 187.68V194H231.299V187.76C231.299 187.36 231.239 187.02 231.119 186.74C230.999 186.46 230.819 186.247 230.579 186.1C230.339 185.953 230.059 185.88 229.739 185.88C229.459 185.88 229.199 185.927 228.959 186.02C228.732 186.113 228.532 186.24 228.359 186.4C228.199 186.56 228.072 186.747 227.979 186.96C227.885 187.173 227.839 187.407 227.839 187.66V194H224.619Z" fill="#FFDE1A"/>
</svg>
