<svg width="327" height="158" viewBox="0 0 327 158" fill="none" xmlns="http://www.w3.org/2000/svg">
<path d="M3.584 17L0.176 5.8H2.64L4.464 12.056C4.53867 12.28 4.60267 12.5253 4.656 12.792C4.72 13.048 4.768 13.2987 4.8 13.544C4.84267 13.7787 4.87467 14.0027 4.896 14.216C4.928 14.4187 4.95467 14.5893 4.976 14.728L4.592 14.712C4.688 14.264 4.768 13.8907 4.832 13.592C4.896 13.2827 4.95467 13.0107 5.008 12.776C5.072 12.5307 5.14667 12.2853 5.232 12.04L6.992 7.416H8.976L10.704 12.04C10.832 12.36 10.9333 12.6693 11.008 12.968C11.0933 13.256 11.1627 13.5387 11.216 13.816C11.2693 14.0827 11.3227 14.3547 11.376 14.632L11.024 14.696C11.056 14.472 11.0773 14.28 11.088 14.12C11.1093 13.9493 11.1253 13.7947 11.136 13.656C11.1573 13.5173 11.1787 13.3787 11.2 13.24C11.2213 13.0907 11.2533 12.92 11.296 12.728C11.3387 12.5253 11.4027 12.2907 11.488 12.024L13.296 5.8H15.728L12.288 17H10.512L7.744 10.376L8 10.408L5.424 17H3.584ZM20.572 17.16C19.708 17.16 18.9347 16.9733 18.252 16.6C17.58 16.216 17.0467 15.6933 16.652 15.032C16.268 14.3707 16.076 13.6133 16.076 12.76C16.076 11.9067 16.268 11.1547 16.652 10.504C17.0467 9.84267 17.58 9.32 18.252 8.936C18.9347 8.552 19.708 8.36 20.572 8.36C21.4253 8.36 22.188 8.552 22.86 8.936C23.5427 9.32 24.076 9.84267 24.46 10.504C24.844 11.1547 25.036 11.9067 25.036 12.76C25.036 13.6133 24.844 14.3707 24.46 15.032C24.076 15.6933 23.5427 16.216 22.86 16.6C22.188 16.9733 21.4253 17.16 20.572 17.16ZM20.572 15.176C20.988 15.176 21.3613 15.0747 21.692 14.872C22.0227 14.6587 22.2787 14.3707 22.46 14.008C22.652 13.6347 22.748 13.2187 22.748 12.76C22.748 12.2907 22.652 11.8747 22.46 11.512C22.2787 11.1387 22.0227 10.8507 21.692 10.648C21.3613 10.4347 20.988 10.328 20.572 10.328C20.1453 10.328 19.7667 10.4347 19.436 10.648C19.1053 10.8613 18.844 11.1493 18.652 11.512C18.46 11.8747 18.3693 12.2907 18.38 12.76C18.3693 13.2187 18.46 13.6347 18.652 14.008C18.844 14.3707 19.1053 14.6587 19.436 14.872C19.7667 15.0747 20.1453 15.176 20.572 15.176ZM26.7454 17V8.536H28.9374L29.0174 11.256L28.6334 10.696C28.7614 10.2587 28.9694 9.864 29.2574 9.512C29.5454 9.14933 29.8814 8.86667 30.2654 8.664C30.66 8.46133 31.0707 8.36 31.4974 8.36C31.6787 8.36 31.8547 8.376 32.0254 8.408C32.196 8.44 32.34 8.47733 32.4574 8.52L31.8494 11.016C31.7214 10.952 31.5667 10.8987 31.3854 10.856C31.204 10.8027 31.0174 10.776 30.8254 10.776C30.5694 10.776 30.3294 10.824 30.1054 10.92C29.892 11.0053 29.7054 11.1333 29.5454 11.304C29.3854 11.464 29.2574 11.656 29.1614 11.88C29.076 12.104 29.0334 12.3493 29.0334 12.616V17H26.7454ZM35.921 14.456L35.249 12.584L39.249 8.536H42.241L35.921 14.456ZM33.761 17V5.16H36.033V17H33.761ZM39.489 17L36.449 13.176L38.049 11.896L42.225 17H39.489ZM47.0564 17.16C46.1924 17.16 45.419 16.9733 44.7364 16.6C44.0644 16.216 43.531 15.6933 43.1364 15.032C42.7524 14.3707 42.5604 13.6133 42.5604 12.76C42.5604 11.9067 42.7524 11.1547 43.1364 10.504C43.531 9.84267 44.0644 9.32 44.7364 8.936C45.419 8.552 46.1924 8.36 47.0564 8.36C47.9097 8.36 48.6724 8.552 49.3444 8.936C50.027 9.32 50.5604 9.84267 50.9444 10.504C51.3284 11.1547 51.5204 11.9067 51.5204 12.76C51.5204 13.6133 51.3284 14.3707 50.9444 15.032C50.5604 15.6933 50.027 16.216 49.3444 16.6C48.6724 16.9733 47.9097 17.16 47.0564 17.16ZM47.0564 15.176C47.4724 15.176 47.8457 15.0747 48.1764 14.872C48.507 14.6587 48.763 14.3707 48.9444 14.008C49.1364 13.6347 49.2324 13.2187 49.2324 12.76C49.2324 12.2907 49.1364 11.8747 48.9444 11.512C48.763 11.1387 48.507 10.8507 48.1764 10.648C47.8457 10.4347 47.4724 10.328 47.0564 10.328C46.6297 10.328 46.251 10.4347 45.9204 10.648C45.5897 10.8613 45.3284 11.1493 45.1364 11.512C44.9444 11.8747 44.8537 12.2907 44.8644 12.76C44.8537 13.2187 44.9444 13.6347 45.1364 14.008C45.3284 14.3707 45.5897 14.6587 45.9204 14.872C46.251 15.0747 46.6297 15.176 47.0564 15.176ZM56.1418 17.16C55.5231 17.16 54.9898 17.0267 54.5418 16.76C54.1044 16.4827 53.7631 16.0933 53.5178 15.592C53.2831 15.08 53.1658 14.4667 53.1658 13.752V8.536H55.4378V13.384C55.4378 13.768 55.5018 14.104 55.6298 14.392C55.7578 14.6693 55.9391 14.8827 56.1738 15.032C56.4084 15.1813 56.6964 15.256 57.0378 15.256C57.2831 15.256 57.5124 15.2187 57.7258 15.144C57.9391 15.0587 58.1204 14.9413 58.2698 14.792C58.4191 14.6427 58.5364 14.4667 58.6218 14.264C58.7071 14.0613 58.7498 13.8427 58.7498 13.608V8.536H61.0218V17H58.8618L58.7818 15.256L59.1978 15.064C59.0698 15.4587 58.8564 15.816 58.5578 16.136C58.2591 16.456 57.9018 16.7067 57.4858 16.888C57.0698 17.0693 56.6218 17.16 56.1418 17.16ZM64.1239 17V6.392H66.3959V17H64.1239ZM62.5399 10.568V8.536H68.1239V10.568H62.5399ZM79.967 17.16C79.103 17.16 78.3083 17.016 77.583 16.728C76.8683 16.4293 76.2497 16.0187 75.727 15.496C75.2043 14.9733 74.799 14.36 74.511 13.656C74.2337 12.952 74.095 12.1893 74.095 11.368C74.095 10.5467 74.239 9.78933 74.527 9.096C74.8257 8.392 75.2417 7.784 75.775 7.272C76.319 6.74933 76.9537 6.344 77.679 6.056C78.4043 5.768 79.199 5.624 80.063 5.624C80.6603 5.624 81.231 5.704 81.775 5.864C82.319 6.024 82.815 6.24267 83.263 6.52C83.711 6.79733 84.0843 7.11733 84.383 7.48L82.895 9.048C82.6177 8.78133 82.3243 8.55733 82.015 8.376C81.7163 8.184 81.4017 8.04 81.071 7.944C80.7403 7.83733 80.399 7.784 80.047 7.784C79.5457 7.784 79.0817 7.87467 78.655 8.056C78.239 8.23733 77.871 8.488 77.551 8.808C77.231 9.128 76.9803 9.50667 76.799 9.944C76.6283 10.3813 76.543 10.856 76.543 11.368C76.543 11.8693 76.6337 12.344 76.815 12.792C77.007 13.2293 77.263 13.6133 77.583 13.944C77.9137 14.264 78.2977 14.52 78.735 14.712C79.1723 14.8933 79.6417 14.984 80.143 14.984C80.495 14.984 80.831 14.9307 81.151 14.824C81.471 14.7173 81.7483 14.568 81.983 14.376C82.2283 14.1733 82.415 13.9387 82.543 13.672C82.6817 13.4053 82.751 13.1227 82.751 12.824V12.44L83.071 12.888H79.871V10.888H85.055C85.0657 11.0053 85.0763 11.1493 85.087 11.32C85.1083 11.4907 85.119 11.6613 85.119 11.832C85.1297 11.992 85.135 12.12 85.135 12.216C85.135 12.9413 85.0017 13.608 84.735 14.216C84.479 14.824 84.1163 15.3467 83.647 15.784C83.1883 16.2213 82.6443 16.5627 82.015 16.808C81.3857 17.0427 80.703 17.16 79.967 17.16ZM90.8689 17.16C90.0049 17.16 89.2315 16.9733 88.5489 16.6C87.8769 16.216 87.3435 15.6933 86.9489 15.032C86.5649 14.3707 86.3729 13.6133 86.3729 12.76C86.3729 11.9067 86.5649 11.1547 86.9489 10.504C87.3435 9.84267 87.8769 9.32 88.5489 8.936C89.2315 8.552 90.0049 8.36 90.8689 8.36C91.7222 8.36 92.4849 8.552 93.1569 8.936C93.8395 9.32 94.3729 9.84267 94.7569 10.504C95.1409 11.1547 95.3329 11.9067 95.3329 12.76C95.3329 13.6133 95.1409 14.3707 94.7569 15.032C94.3729 15.6933 93.8395 16.216 93.1569 16.6C92.4849 16.9733 91.7222 17.16 90.8689 17.16ZM90.8689 15.176C91.2849 15.176 91.6582 15.0747 91.9889 14.872C92.3195 14.6587 92.5755 14.3707 92.7569 14.008C92.9489 13.6347 93.0449 13.2187 93.0449 12.76C93.0449 12.2907 92.9489 11.8747 92.7569 11.512C92.5755 11.1387 92.3195 10.8507 91.9889 10.648C91.6582 10.4347 91.2849 10.328 90.8689 10.328C90.4422 10.328 90.0635 10.4347 89.7329 10.648C89.4022 10.8613 89.1409 11.1493 88.9489 11.512C88.7569 11.8747 88.6662 12.2907 88.6769 12.76C88.6662 13.2187 88.7569 13.6347 88.9489 14.008C89.1409 14.3707 89.4022 14.6587 89.7329 14.872C90.0635 15.0747 90.4422 15.176 90.8689 15.176ZM100.21 17.16C99.5063 17.16 98.8716 16.968 98.3063 16.584C97.7409 16.2 97.2929 15.6773 96.9622 15.016C96.6316 14.3547 96.4663 13.5973 96.4663 12.744C96.4663 11.8907 96.6316 11.1387 96.9622 10.488C97.3036 9.82667 97.7623 9.30933 98.3383 8.936C98.9143 8.552 99.5703 8.36 100.306 8.36C100.722 8.36 101.101 8.424 101.442 8.552C101.794 8.66933 102.098 8.83467 102.354 9.048C102.621 9.26133 102.845 9.50667 103.026 9.784C103.208 10.0613 103.336 10.36 103.41 10.68L102.93 10.6V8.536H105.186V17H102.898V14.968L103.41 14.92C103.325 15.2187 103.186 15.5013 102.994 15.768C102.802 16.0347 102.562 16.2747 102.274 16.488C101.997 16.6907 101.682 16.856 101.33 16.984C100.978 17.1013 100.605 17.16 100.21 17.16ZM100.834 15.192C101.261 15.192 101.634 15.0907 101.954 14.888C102.274 14.6853 102.52 14.4027 102.69 14.04C102.872 13.6667 102.962 13.2347 102.962 12.744C102.962 12.264 102.872 11.8427 102.69 11.48C102.52 11.1173 102.274 10.8347 101.954 10.632C101.634 10.4187 101.261 10.312 100.834 10.312C100.418 10.312 100.05 10.4187 99.7303 10.632C99.4209 10.8347 99.1756 11.1173 98.9943 11.48C98.8129 11.8427 98.7223 12.264 98.7223 12.744C98.7223 13.2347 98.8129 13.6667 98.9943 14.04C99.1756 14.4027 99.4209 14.6853 99.7303 14.888C100.05 15.0907 100.418 15.192 100.834 15.192ZM107.48 17V5.16H109.752V17H107.48Z" fill="#1E1E1E"/>
<rect y="38" width="95" height="120" rx="4" fill="#047CEC" fill-opacity="0.05"/>
<path d="M43.4332 106.177C32.0108 106.177 26.1994 101.945 25.1149 101.061C21.2485 101.049 17.8183 97.6543 17.6768 97.5128C17.5707 97.4067 17.5 97.2535 17.5 97.1003C17.5 87.9883 19.9637 77.2024 24.4312 66.7348C28.1916 57.9293 33.1542 49.9726 37.3625 45.9883C37.4686 45.8822 37.6218 45.8232 37.7633 45.8232H52.3919C52.5334 45.8232 52.6749 45.8704 52.7809 45.9765L57.1896 49.8665C57.3782 50.0315 57.4371 50.3144 57.3428 50.5502L54.891 56.1022C54.8084 56.279 54.6434 56.4087 54.443 56.4441L45.4725 57.9175C45.2367 57.9529 45.001 57.8468 44.8831 57.6464L43.3978 55.2653L40.4391 54.782C38.1876 58.7898 38.3055 63.8586 38.4234 69.2221C38.5295 74.0786 38.6473 79.4775 37.0088 84.8173C37.7986 84.0511 38.8006 83.2024 39.9558 82.4244C43.999 79.7132 47.9951 79.3714 51.4961 81.446C53.5 82.6366 54.9499 83.9922 55.7043 84.7938C59.0639 78.2397 64.6749 76.8252 68.8595 76.8252C73.5157 76.8252 77.335 78.4991 77.5 78.5698L77.0285 79.6425C76.9931 79.6307 73.2564 78.004 68.8595 78.004H68.8242C63.0128 78.004 58.8163 80.7388 56.3762 86.0786C56.2937 86.2673 56.1169 86.3969 55.9047 86.4205C55.7043 86.4441 55.5039 86.3616 55.3743 86.2083C55.3625 86.1847 53.6886 84.0983 50.8831 82.4362C47.7593 80.5855 44.3173 80.9038 40.6277 83.3557C37.7986 85.2417 35.889 87.7407 35.8772 87.7761C35.7004 88.0118 35.3703 88.0826 35.111 87.9293C34.8517 87.7761 34.7456 87.4578 34.8635 87.1867C37.5039 81.1749 37.3743 75.1042 37.2446 69.2221C37.1267 63.5285 37.0088 58.1533 39.6375 53.8036C39.7672 53.6032 40.0029 53.4853 40.2387 53.5325L43.8576 54.1219C44.0226 54.1454 44.1758 54.2515 44.2583 54.393L45.6847 56.668L53.9597 55.3124L56.1051 50.4559L52.1916 47.002H38.0108C33.944 50.9392 29.1699 58.6484 25.5157 67.1946C21.1542 77.4146 18.7259 87.9293 18.6788 96.8409C19.3861 97.4893 22.2033 99.8822 25.1385 99.8822H25.3035C25.4568 99.8822 25.5982 99.9293 25.7161 100.035C25.775 100.083 31.445 104.998 43.4332 104.998C55.4332 104.998 60.1365 101.662 60.1837 101.627C60.3841 101.485 60.6552 101.474 60.8556 101.603L66.1601 105.081L65.5118 106.071L60.5255 102.806C59.2171 103.607 54.1719 106.177 43.4332 106.177Z" fill="#047CEC"/>
<path d="M42.2058 50.9597L44.272 54.4086L43.2606 55.0145L41.1944 51.5656L42.2058 50.9597ZM46.0102 49.4418L48.2399 56.7744L47.1118 57.1174L44.8821 49.7848L46.0102 49.4418ZM49.6032 48.9064L51.5314 56.2472L50.3915 56.5466L48.4633 49.2058L49.6032 48.9064ZM52.5985 48.436L54.9326 55.6742L53.8104 56.0361L51.4763 48.7979L52.5985 48.436ZM73.3028 105.811C69.2478 96.0157 60.3362 90.9469 60.2419 90.8998L60.8195 89.8742C60.9138 89.9332 63.1889 91.218 66.0179 93.7642C68.6231 96.1218 72.1948 100.047 74.3991 105.363L73.3028 105.811ZM30.2891 91.7956V90.6169C30.3952 90.6169 32.906 90.5343 34.8981 87.1277L35.9119 87.7171C33.5661 91.7485 30.4187 91.7956 30.2891 91.7956Z" fill="#047CEC"/>
<path d="M40.9581 98.5974C32.1172 98.5974 25.186 95.0257 24.8795 94.8607C24.7027 94.7664 24.5848 94.5896 24.5612 94.3892C24.5376 94.1888 24.6319 94.0002 24.7852 93.8705C25.0563 93.6583 31.5278 88.7192 42.5612 88.7192C53.7596 88.7192 56.3058 93.8705 56.4119 94.0827C56.5298 94.3302 56.4591 94.6367 56.2351 94.8018C56.0583 94.9432 51.7557 98.1731 42.2665 98.5621C41.8304 98.5974 41.3942 98.5974 40.9581 98.5974ZM26.3412 94.2477C28.628 95.2615 34.9345 97.6898 42.2312 97.3951C49.6339 97.0886 53.7832 94.9668 55.0799 94.177C54.7498 93.7291 54.0897 92.9982 52.9345 92.2792C51.2135 91.2065 48.019 89.9216 42.573 89.9216C34.1329 89.9098 28.3923 92.9629 26.3412 94.2477Z" fill="#047CEC"/>
<path d="M12.2179 145.317C11.5085 145.317 10.8459 145.191 10.2299 144.939C9.61387 144.677 9.07253 144.318 8.60587 143.861C8.1392 143.403 7.7752 142.871 7.51387 142.265C7.26187 141.649 7.13587 140.986 7.13587 140.277C7.13587 139.577 7.26187 138.923 7.51387 138.317C7.7752 137.71 8.13453 137.183 8.59187 136.735C9.05853 136.277 9.59987 135.923 10.2159 135.671C10.8319 135.419 11.4945 135.293 12.2039 135.293C12.6985 135.293 13.1792 135.363 13.6459 135.503C14.1219 135.643 14.5512 135.839 14.9339 136.091C15.3165 136.343 15.6292 136.632 15.8719 136.959L14.8919 137.981C14.6119 137.71 14.3225 137.486 14.0239 137.309C13.7345 137.131 13.4359 136.996 13.1279 136.903C12.8199 136.809 12.5119 136.763 12.2039 136.763C11.6999 136.763 11.2332 136.851 10.8039 137.029C10.3839 137.206 10.0105 137.453 9.68387 137.771C9.36653 138.088 9.1192 138.461 8.94187 138.891C8.76453 139.311 8.67587 139.773 8.67587 140.277C8.67587 140.762 8.7692 141.224 8.95587 141.663C9.14253 142.092 9.3992 142.47 9.72587 142.797C10.0619 143.123 10.4445 143.38 10.8739 143.567C11.3125 143.753 11.7745 143.847 12.2599 143.847C12.6239 143.847 12.9692 143.795 13.2959 143.693C13.6225 143.581 13.9119 143.427 14.1639 143.231C14.4159 143.035 14.6119 142.811 14.7519 142.559C14.8919 142.297 14.9619 142.022 14.9619 141.733V141.453L15.1719 141.649H12.1759V140.151H16.5159C16.5345 140.253 16.5485 140.356 16.5579 140.459C16.5672 140.552 16.5719 140.645 16.5719 140.739C16.5812 140.823 16.5859 140.907 16.5859 140.991C16.5859 141.635 16.4739 142.223 16.2499 142.755C16.0259 143.277 15.7132 143.73 15.3119 144.113C14.9199 144.495 14.4579 144.794 13.9259 145.009C13.4032 145.214 12.8339 145.317 12.2179 145.317ZM21.0186 145.317C20.412 145.317 19.8566 145.149 19.3526 144.813C18.858 144.477 18.4613 144.019 18.1626 143.441C17.864 142.862 17.7146 142.209 17.7146 141.481C17.7146 140.743 17.864 140.09 18.1626 139.521C18.4706 138.942 18.8813 138.489 19.3946 138.163C19.9173 137.836 20.5006 137.673 21.1446 137.673C21.5273 137.673 21.8773 137.729 22.1946 137.841C22.512 137.953 22.7873 138.111 23.0206 138.317C23.2633 138.513 23.4593 138.741 23.6086 139.003C23.7673 139.264 23.8653 139.544 23.9026 139.843L23.5806 139.731V137.827H25.0366V145.177H23.5806V143.427L23.9166 143.329C23.8606 143.581 23.744 143.828 23.5666 144.071C23.3986 144.304 23.1793 144.514 22.9086 144.701C22.6473 144.887 22.3533 145.037 22.0266 145.149C21.7093 145.261 21.3733 145.317 21.0186 145.317ZM21.3966 143.987C21.8353 143.987 22.2226 143.879 22.5586 143.665C22.8946 143.45 23.156 143.156 23.3426 142.783C23.5386 142.4 23.6366 141.966 23.6366 141.481C23.6366 141.005 23.5386 140.58 23.3426 140.207C23.156 139.833 22.8946 139.539 22.5586 139.325C22.2226 139.11 21.8353 139.003 21.3966 139.003C20.9673 139.003 20.5846 139.11 20.2486 139.325C19.922 139.539 19.6606 139.833 19.4646 140.207C19.278 140.58 19.1846 141.005 19.1846 141.481C19.1846 141.966 19.278 142.4 19.4646 142.783C19.6606 143.156 19.922 143.45 20.2486 143.665C20.5846 143.879 20.9673 143.987 21.3966 143.987ZM27.288 145.177V137.827H28.73V145.177H27.288ZM27.988 136.203C27.68 136.203 27.442 136.123 27.274 135.965C27.106 135.806 27.022 135.582 27.022 135.293C27.022 135.022 27.106 134.803 27.274 134.635C27.4513 134.467 27.6893 134.383 27.988 134.383C28.296 134.383 28.534 134.462 28.702 134.621C28.87 134.779 28.954 135.003 28.954 135.293C28.954 135.563 28.8653 135.783 28.688 135.951C28.52 136.119 28.2867 136.203 27.988 136.203ZM30.9465 145.177V137.827H32.3885V139.339L32.1365 139.507C32.2298 139.18 32.4118 138.881 32.6825 138.611C32.9531 138.331 33.2751 138.107 33.6485 137.939C34.0218 137.761 34.4045 137.673 34.7965 137.673C35.3565 137.673 35.8231 137.785 36.1965 138.009C36.5698 138.223 36.8498 138.555 37.0365 139.003C37.2231 139.451 37.3165 140.015 37.3165 140.697V145.177H35.8745V140.795C35.8745 140.375 35.8185 140.029 35.7065 139.759C35.5945 139.479 35.4218 139.278 35.1885 139.157C34.9551 139.026 34.6658 138.97 34.3205 138.989C34.0405 138.989 33.7838 139.035 33.5505 139.129C33.3171 139.213 33.1118 139.334 32.9345 139.493C32.7665 139.651 32.6311 139.838 32.5285 140.053C32.4351 140.258 32.3885 140.482 32.3885 140.725V145.177H31.6745C31.5531 145.177 31.4318 145.177 31.3105 145.177C31.1891 145.177 31.0678 145.177 30.9465 145.177ZM43.5605 145.177V135.377H45.0445L48.6145 141.187L47.9005 141.173L51.5125 135.377H52.9125V145.177H51.4005V141.159C51.4005 140.319 51.4191 139.563 51.4565 138.891C51.5031 138.219 51.5778 137.551 51.6805 136.889L51.8765 137.407L48.6705 142.363H47.7465L44.6385 137.463L44.7925 136.889C44.8951 137.514 44.9651 138.158 45.0025 138.821C45.0491 139.474 45.0725 140.253 45.0725 141.159V145.177H43.5605ZM57.8721 145.317C57.3494 145.317 56.8921 145.195 56.5001 144.953C56.1174 144.71 55.8188 144.369 55.6041 143.931C55.3988 143.492 55.2961 142.969 55.2961 142.363V137.827H56.7381V141.971C56.7381 142.4 56.8034 142.773 56.9341 143.091C57.0741 143.399 57.2701 143.637 57.5221 143.805C57.7834 143.973 58.0961 144.057 58.4601 144.057C58.7308 144.057 58.9781 144.015 59.2021 143.931C59.4261 143.837 59.6174 143.711 59.7761 143.553C59.9441 143.394 60.0748 143.203 60.1681 142.979C60.2614 142.755 60.3081 142.512 60.3081 142.251V137.827H61.7501V145.177H60.3081V143.637L60.5601 143.469C60.4481 143.814 60.2568 144.127 59.9861 144.407C59.7248 144.687 59.4121 144.911 59.0481 145.079C58.6841 145.237 58.2921 145.317 57.8721 145.317ZM66.2226 145.317C65.6066 145.317 65.0513 145.209 64.5566 144.995C64.062 144.78 63.6513 144.463 63.3246 144.043L64.3046 143.203C64.5846 143.529 64.888 143.767 65.2146 143.917C65.5506 144.057 65.9286 144.127 66.3486 144.127C66.5166 144.127 66.6706 144.108 66.8106 144.071C66.96 144.024 67.086 143.959 67.1886 143.875C67.3006 143.791 67.3846 143.693 67.4406 143.581C67.4966 143.459 67.5246 143.329 67.5246 143.189C67.5246 142.946 67.436 142.75 67.2586 142.601C67.1653 142.535 67.016 142.465 66.8106 142.391C66.6146 142.307 66.358 142.223 66.0406 142.139C65.4993 141.999 65.056 141.84 64.7106 141.663C64.3653 141.485 64.0993 141.285 63.9126 141.061C63.7726 140.883 63.67 140.692 63.6046 140.487C63.5393 140.272 63.5066 140.039 63.5066 139.787C63.5066 139.479 63.572 139.199 63.7026 138.947C63.8426 138.685 64.0293 138.461 64.2626 138.275C64.5053 138.079 64.7853 137.929 65.1026 137.827C65.4293 137.724 65.7746 137.673 66.1386 137.673C66.484 137.673 66.8246 137.719 67.1606 137.813C67.506 137.906 67.8233 138.041 68.1126 138.219C68.402 138.396 68.6446 138.606 68.8406 138.849L68.0146 139.759C67.8373 139.581 67.6413 139.427 67.4266 139.297C67.2213 139.157 67.0113 139.049 66.7966 138.975C66.582 138.9 66.386 138.863 66.2086 138.863C66.0126 138.863 65.8353 138.881 65.6766 138.919C65.518 138.956 65.3826 139.012 65.2706 139.087C65.168 139.161 65.0886 139.255 65.0326 139.367C64.9766 139.479 64.9486 139.605 64.9486 139.745C64.958 139.866 64.986 139.983 65.0326 140.095C65.0886 140.197 65.1633 140.286 65.2566 140.361C65.3593 140.435 65.5133 140.515 65.7186 140.599C65.924 140.683 66.1853 140.762 66.5026 140.837C66.9693 140.958 67.352 141.093 67.6506 141.243C67.9586 141.383 68.2013 141.546 68.3786 141.733C68.5653 141.91 68.696 142.115 68.7706 142.349C68.8453 142.582 68.8826 142.843 68.8826 143.133C68.8826 143.553 68.7613 143.931 68.5186 144.267C68.2853 144.593 67.968 144.85 67.5666 145.037C67.1653 145.223 66.7173 145.317 66.2226 145.317ZM73.5939 145.317C72.9125 145.317 72.3012 145.149 71.7599 144.813C71.2279 144.477 70.8032 144.019 70.4859 143.441C70.1779 142.862 70.0239 142.213 70.0239 141.495C70.0239 140.776 70.1779 140.127 70.4859 139.549C70.8032 138.97 71.2279 138.513 71.7599 138.177C72.3012 137.841 72.9125 137.673 73.5939 137.673C74.2472 137.673 74.8399 137.808 75.3719 138.079C75.9132 138.34 76.3239 138.699 76.6039 139.157L75.8059 140.137C75.6565 139.922 75.4652 139.726 75.2319 139.549C74.9985 139.371 74.7512 139.231 74.4899 139.129C74.2285 139.026 73.9765 138.975 73.7339 138.975C73.2859 138.975 72.8845 139.087 72.5299 139.311C72.1845 139.525 71.9092 139.824 71.7039 140.207C71.4985 140.589 71.3959 141.019 71.3959 141.495C71.3959 141.971 71.5032 142.4 71.7179 142.783C71.9325 143.156 72.2172 143.455 72.5719 143.679C72.9265 143.903 73.3185 144.015 73.7479 144.015C73.9999 144.015 74.2425 143.973 74.4759 143.889C74.7185 143.805 74.9519 143.679 75.1759 143.511C75.3999 143.343 75.6099 143.137 75.8059 142.895L76.6039 143.875C76.3052 144.295 75.8759 144.64 75.3159 144.911C74.7652 145.181 74.1912 145.317 73.5939 145.317ZM77.9921 145.177V134.817H79.4341V145.177H77.9921ZM84.771 145.317C84.015 145.317 83.343 145.158 82.755 144.841C82.1763 144.514 81.719 144.071 81.383 143.511C81.0563 142.951 80.893 142.307 80.893 141.579C80.893 141 80.9863 140.473 81.173 139.997C81.3597 139.521 81.6163 139.11 81.943 138.765C82.279 138.41 82.6757 138.139 83.133 137.953C83.5997 137.757 84.1037 137.659 84.645 137.659C85.121 137.659 85.5643 137.752 85.975 137.939C86.3857 138.116 86.7403 138.363 87.039 138.681C87.347 138.998 87.5803 139.376 87.739 139.815C87.907 140.244 87.9863 140.715 87.977 141.229L87.963 141.845H81.957L81.635 140.697H86.717L86.507 140.935V140.599C86.479 140.291 86.3763 140.015 86.199 139.773C86.0217 139.53 85.7977 139.339 85.527 139.199C85.2563 139.059 84.9623 138.989 84.645 138.989C84.141 138.989 83.7163 139.087 83.371 139.283C83.0257 139.469 82.7643 139.749 82.587 140.123C82.4097 140.487 82.321 140.939 82.321 141.481C82.321 141.994 82.4283 142.442 82.643 142.825C82.8577 143.198 83.161 143.487 83.553 143.693C83.945 143.898 84.3977 144.001 84.911 144.001C85.275 144.001 85.611 143.94 85.919 143.819C86.2363 143.697 86.577 143.478 86.941 143.161L87.669 144.183C87.445 144.407 87.1697 144.603 86.843 144.771C86.5257 144.939 86.185 145.074 85.821 145.177C85.4663 145.27 85.1163 145.317 84.771 145.317Z" fill="#047CEC"/>
<rect x="116" y="38" width="95" height="120" rx="4" fill="#047CEC" fill-opacity="0.05"/>
<path d="M177.435 104.075V94.2332C177.435 93.5587 177.657 92.9004 178.08 92.3756C181.164 88.5527 182.575 84.4368 183.344 80.9325C185.94 80.902 188.236 80.7024 190.256 80.3917M159.154 62.4776V66.5533C155.508 68.5138 151.391 67.445 147.717 68.8213C147.231 69.0032 146.694 68.9774 146.222 68.7585C140.786 66.2458 136.105 67.0796 132.746 69.375C132.334 69.6567 131.783 69.3267 131.846 68.8325L132.285 65.3798C132.452 64.0652 132.929 62.8088 133.675 61.7139C134.422 60.619 135.417 59.7168 136.58 59.0812L137.948 58.3343C137.948 58.3343 141.639 59.2212 143.965 58.3601C144.522 58.154 144.834 57.5601 144.709 56.9806C144.133 54.3311 141.9 49.4973 140.92 49.5761C139.811 49.6647 132.416 51.8651 131.054 53.9979C129.235 56.8438 125.694 63.1118 123.543 73.3798C123.397 74.0752 123.627 74.8012 124.153 75.2792C126.061 77.0145 131.585 80.7875 143.656 80.9324C144.425 84.4366 145.836 88.5525 148.92 92.3755C149.343 92.9002 149.565 93.5586 149.565 94.233V104.075M167.846 62.4776V66.5533C171.492 68.5138 175.609 67.445 179.283 68.8213C179.769 69.0032 180.306 68.9774 180.778 68.7585C186.214 66.2458 190.895 67.0796 194.254 69.375C194.666 69.6567 195.217 69.3267 195.154 68.8325L194.715 65.3798C194.548 64.0652 194.071 62.8088 193.325 61.7139C192.578 60.619 191.583 59.7168 190.42 59.0812L189.052 58.3343C189.052 58.3343 185.361 59.2212 183.035 58.3601C182.478 58.154 182.166 57.5601 182.291 56.9806C182.867 54.3311 185.1 49.4973 186.08 49.5761C187.189 49.6647 194.584 51.8651 195.946 53.9979C197.765 56.8438 201.306 63.1118 203.457 73.3798C203.603 74.0752 203.373 74.8012 202.847 75.2792C201.773 76.2563 199.556 77.8756 195.672 79.1328" stroke="#047CEC" stroke-width="1.5" stroke-miterlimit="10" stroke-linecap="round" stroke-linejoin="round"/>
<path d="M156.494 48.7511C155.978 49.7572 155.731 50.9192 155.844 52.1372L156.484 59.006C156.681 61.1169 158.453 62.7309 160.573 62.7309H166.428C168.548 62.7309 170.32 61.1169 170.517 59.006L171.157 52.1372C171.494 48.5167 168.646 45.3901 165.009 45.3901H161.991C161.624 45.39 161.258 45.4222 160.897 45.4866M135.326 80.1486C138.351 80.7271 142.061 81.0546 146.575 80.8996M180.427 80.8998C183.259 80.997 185.775 80.9041 188.003 80.6786M159.893 72.0154C161.886 72.0154 163.501 73.6304 163.501 75.6227M163.501 75.6227V78.9062M163.501 75.6227C163.501 73.6304 165.116 72.0154 167.108 72.0154M163.501 91.91V98.1937M158.757 84.3287C158.757 87.2584 156.862 89.7459 154.231 90.6325M168.245 84.3287C168.245 87.2584 170.139 89.7459 172.77 90.6325M161.38 121.61L161.734 118.047C161.799 117.625 162.014 117.241 162.338 116.964C162.662 116.687 163.074 116.534 163.501 116.534C163.927 116.534 164.34 116.687 164.664 116.964C164.988 117.241 165.202 117.625 165.268 118.047L165.621 121.61" stroke="#047CEC" stroke-width="1.5" stroke-miterlimit="10" stroke-linecap="round" stroke-linejoin="round"/>
<path d="M179.051 121.61L177.434 106.368V104.075H149.566V106.368L147.949 121.61" stroke="#047CEC" stroke-width="1.5" stroke-miterlimit="10" stroke-linecap="round" stroke-linejoin="round"/>
<path d="M137.893 142.642L137.809 140.948L142.947 135.81H144.935L137.893 142.642ZM136.633 145.61V135.81H138.145V145.61H136.633ZM143.129 145.61L139.377 140.598L140.497 139.632L145.019 145.61H143.129ZM149.324 145.75C148.568 145.75 147.896 145.591 147.308 145.274C146.729 144.947 146.272 144.504 145.936 143.944C145.609 143.384 145.446 142.74 145.446 142.012C145.446 141.433 145.539 140.906 145.726 140.43C145.912 139.954 146.169 139.543 146.496 139.198C146.832 138.843 147.228 138.573 147.686 138.386C148.152 138.19 148.656 138.092 149.198 138.092C149.674 138.092 150.117 138.185 150.528 138.372C150.938 138.549 151.293 138.797 151.592 139.114C151.9 139.431 152.133 139.809 152.292 140.248C152.46 140.677 152.539 141.149 152.53 141.662L152.516 142.278H146.51L146.188 141.13H151.27L151.06 141.368V141.032C151.032 140.724 150.929 140.449 150.752 140.206C150.574 139.963 150.35 139.772 150.08 139.632C149.809 139.492 149.515 139.422 149.198 139.422C148.694 139.422 148.269 139.52 147.924 139.716C147.578 139.903 147.317 140.183 147.14 140.556C146.962 140.92 146.874 141.373 146.874 141.914C146.874 142.427 146.981 142.875 147.196 143.258C147.41 143.631 147.714 143.921 148.106 144.126C148.498 144.331 148.95 144.434 149.464 144.434C149.828 144.434 150.164 144.373 150.472 144.252C150.789 144.131 151.13 143.911 151.494 143.594L152.222 144.616C151.998 144.84 151.722 145.036 151.396 145.204C151.078 145.372 150.738 145.507 150.374 145.61C150.019 145.703 149.669 145.75 149.324 145.75ZM157.527 145.75C156.771 145.75 156.099 145.591 155.511 145.274C154.932 144.947 154.475 144.504 154.139 143.944C153.812 143.384 153.649 142.74 153.649 142.012C153.649 141.433 153.742 140.906 153.929 140.43C154.116 139.954 154.372 139.543 154.699 139.198C155.035 138.843 155.432 138.573 155.889 138.386C156.356 138.19 156.86 138.092 157.401 138.092C157.877 138.092 158.32 138.185 158.731 138.372C159.142 138.549 159.496 138.797 159.795 139.114C160.103 139.431 160.336 139.809 160.495 140.248C160.663 140.677 160.742 141.149 160.733 141.662L160.719 142.278H154.713L154.391 141.13H159.473L159.263 141.368V141.032C159.235 140.724 159.132 140.449 158.955 140.206C158.778 139.963 158.554 139.772 158.283 139.632C158.012 139.492 157.718 139.422 157.401 139.422C156.897 139.422 156.472 139.52 156.127 139.716C155.782 139.903 155.52 140.183 155.343 140.556C155.166 140.92 155.077 141.373 155.077 141.914C155.077 142.427 155.184 142.875 155.399 143.258C155.614 143.631 155.917 143.921 156.309 144.126C156.701 144.331 157.154 144.434 157.667 144.434C158.031 144.434 158.367 144.373 158.675 144.252C158.992 144.131 159.333 143.911 159.697 143.594L160.425 144.616C160.201 144.84 159.926 145.036 159.599 145.204C159.282 145.372 158.941 145.507 158.577 145.61C158.222 145.703 157.872 145.75 157.527 145.75ZM162.3 148.69V138.26H163.756V139.94L163.532 139.814C163.588 139.534 163.747 139.268 164.008 139.016C164.269 138.755 164.587 138.545 164.96 138.386C165.343 138.218 165.735 138.134 166.136 138.134C166.799 138.134 167.387 138.297 167.9 138.624C168.413 138.951 168.819 139.399 169.118 139.968C169.417 140.537 169.566 141.191 169.566 141.928C169.566 142.656 169.417 143.309 169.118 143.888C168.829 144.457 168.427 144.91 167.914 145.246C167.401 145.573 166.822 145.736 166.178 145.736C165.749 145.736 165.333 145.652 164.932 145.484C164.531 145.307 164.19 145.083 163.91 144.812C163.63 144.541 163.457 144.261 163.392 143.972L163.756 143.776V148.69H162.3ZM165.94 144.406C166.369 144.406 166.752 144.299 167.088 144.084C167.424 143.869 167.69 143.575 167.886 143.202C168.082 142.829 168.18 142.404 168.18 141.928C168.18 141.452 168.082 141.032 167.886 140.668C167.699 140.295 167.438 140.001 167.102 139.786C166.766 139.571 166.379 139.464 165.94 139.464C165.501 139.464 165.114 139.571 164.778 139.786C164.442 139.991 164.176 140.281 163.98 140.654C163.784 141.027 163.686 141.452 163.686 141.928C163.686 142.404 163.784 142.829 163.98 143.202C164.176 143.575 164.442 143.869 164.778 144.084C165.114 144.299 165.501 144.406 165.94 144.406ZM175.42 145.61V135.81H176.932V145.61H175.42ZM176.092 141.438V139.982H181.146V141.438H176.092ZM176.092 137.266V135.81H181.776V137.266H176.092ZM183.716 145.61V138.26H185.158V145.61H183.716ZM184.416 136.636C184.108 136.636 183.87 136.557 183.702 136.398C183.534 136.239 183.45 136.015 183.45 135.726C183.45 135.455 183.534 135.236 183.702 135.068C183.879 134.9 184.117 134.816 184.416 134.816C184.724 134.816 184.962 134.895 185.13 135.054C185.298 135.213 185.382 135.437 185.382 135.726C185.382 135.997 185.293 136.216 185.116 136.384C184.948 136.552 184.714 136.636 184.416 136.636ZM188.284 145.61V136.384H189.726V145.61H188.284ZM186.758 139.66V138.26H191.434V139.66H186.758Z" fill="#047CEC"/>
<rect x="232" y="38" width="95" height="120" rx="4" fill="#047CEC"/>
<path d="M267.529 73.3438L268.828 74.9676L272.726 71.8489C272.848 71.7513 272.946 71.6277 273.013 71.4872C273.08 71.3466 273.115 71.1928 273.115 71.037C273.115 70.8812 273.08 70.7274 273.013 70.5868C272.946 70.4463 272.848 70.3227 272.726 70.2251L268.828 67.1064L267.529 68.7302L269.114 69.9974H258.711V72.0766H269.113L267.529 73.3438ZM290.176 74.9676L291.476 73.3438L289.891 72.0766H300.293V69.9974H289.891L291.476 68.7302L290.176 67.1064L286.278 70.2251C286.156 70.3227 286.058 70.4463 285.991 70.5868C285.924 70.7274 285.889 70.8812 285.889 71.037C285.889 71.1928 285.924 71.3466 285.991 71.4872C286.058 71.6277 286.156 71.7513 286.278 71.8489L290.176 74.9676Z" fill="white"/>
<path d="M299.921 79.5374L299.488 78.871L297.101 74.3178L295.159 75.0559L297.692 79.9137L298.176 80.6653C298.434 81.0645 298.687 81.4585 298.936 81.8504C298.542 82.2995 293.616 87.6698 284.18 87.6698H273.785C266.227 87.6698 261.534 84.1852 259.782 82.5906C260.155 81.9783 260.539 81.3732 260.92 80.7786L263.577 76.0798L263.623 75.9873C263.836 75.5018 264.033 75.0122 264.217 74.5163L262.267 73.7938C262.103 74.2357 261.928 74.6723 261.74 75.1047L259.171 79.6559C258.184 81.1913 257.164 82.7798 256.379 84.5106C254.823 87.9807 254.224 91.8644 254.088 95.6962C254.08 95.7243 254.06 95.7461 254.055 95.7752C254.026 95.9251 254.031 96.0796 254.068 96.2274C253.971 100.17 254.346 104.036 254.664 107.308L254.678 107.422L255.717 107.421H256.757C256.756 107.308 256.747 107.194 256.731 107.081C256.448 104.174 256.122 100.773 256.137 97.2971C260.207 98.2774 272.947 101.716 278.212 107.464C278.473 107.753 278.792 107.984 279.148 108.142C279.504 108.301 279.889 108.383 280.279 108.383C280.668 108.384 281.053 108.303 281.41 108.145C281.766 107.988 282.086 107.758 282.347 107.469C287.316 102.045 298.699 98.6506 303.036 97.5144C303.038 100.911 302.719 104.223 302.442 107.056L302.412 107.296L304.474 107.547L304.508 107.282C305.147 100.715 306.023 91.7189 302.781 84.5117C301.985 82.734 300.936 81.1092 299.921 79.5374ZM280.81 106.069C280.743 106.143 280.661 106.202 280.569 106.243C280.477 106.283 280.378 106.304 280.278 106.304C280.178 106.303 280.079 106.282 279.987 106.241C279.896 106.199 279.814 106.14 279.747 106.065C273.817 99.5904 259.904 96.0278 256.19 95.1702C256.359 91.7636 256.928 88.3663 258.273 85.3662C258.414 85.0574 258.57 84.7539 258.727 84.4503C260.945 86.3808 265.933 89.75 273.783 89.75H284.178C293.194 89.75 298.438 85.308 300.038 83.707C300.34 84.2486 300.628 84.7965 300.883 85.3631C302.261 88.4277 302.829 91.9039 302.986 95.3781C298.292 96.5663 286.296 100.081 280.81 106.069ZM295.119 66.7321C294.084 59.5093 297.018 51.774 299.66 46.5585L297.807 45.6188C295.028 51.1014 291.949 59.2671 293.061 67.0274L295.119 66.7321ZM264.038 66.754L266.101 67.0035C267.051 59.1652 263.958 51.0463 261.196 45.6167L259.343 46.5585C261.974 51.7324 264.924 59.4345 264.038 66.754Z" fill="white"/>
<path d="M277.422 75.1954H279.502V78.3141H277.422V75.1954ZM255.937 63.5482L255.773 63.6802C255.691 63.7457 255.608 63.8143 255.521 63.8778L255.499 63.8965C255.178 64.0934 254.877 64.3215 254.601 64.5774L256.016 66.1003C256.21 65.9185 256.423 65.7581 256.652 65.6221L256.745 65.5494L256.749 65.5546C256.863 65.4714 256.973 65.382 257.081 65.2947L257.241 65.1668C257.392 65.041 257.535 64.9132 257.664 64.7801L256.173 63.331C256.098 63.4074 256.019 63.4799 255.937 63.5482ZM256.555 62.2457C256.568 62.3247 256.574 62.4016 256.574 62.4764H258.653C258.653 62.2919 258.638 62.1077 258.61 61.9255C258.498 61.1936 258.088 60.6042 257.787 60.2258L256.156 61.5149C256.4 61.8226 256.526 62.0523 256.555 62.2457ZM253.415 54.5083C253.464 55.1347 253.547 55.7579 253.663 56.3753L255.706 55.9855C255.604 55.4437 255.531 54.8968 255.488 54.3471L253.415 54.5083ZM254.757 59.6748C254.821 59.8079 254.898 59.9389 254.983 60.0688L256.724 58.9336C256.686 58.8768 256.652 58.8178 256.622 58.7569C256.429 58.365 256.261 57.9612 256.119 57.5479L254.154 58.2267C254.327 58.7299 254.53 59.2185 254.757 59.6748ZM255.004 67.4216L253.185 66.4164C252.825 67.0741 252.544 67.7724 252.349 68.4965L254.355 69.0443C254.516 68.458 254.734 67.9112 255.004 67.4216ZM251.909 102.315L249.837 102.492C249.9 103.224 249.966 103.9 250.028 104.504L252.096 104.288C252.034 103.695 251.97 103.033 251.909 102.315ZM250.757 84.2146L252.744 84.8238C252.939 84.1917 253.16 83.6116 253.405 83.1012L251.528 82.2062C251.222 82.8558 250.964 83.5271 250.757 84.2146ZM251.635 80.5429L251.845 78.5563L253.912 78.7746L253.702 80.7612L251.635 80.5429ZM251.654 98.366L249.577 98.4554C249.607 99.1509 249.643 99.8256 249.686 100.474L251.761 100.34C251.719 99.706 251.683 99.0459 251.654 98.366ZM254.117 72.6038C254.042 72.0081 254.024 71.4065 254.064 70.8074L251.989 70.6713C251.941 71.4032 251.963 72.138 252.054 72.8658L254.117 72.6038ZM251.579 95.0301L251.581 94.423L249.502 94.4022L249.5 95.0332C249.5 95.5031 249.504 95.9688 249.514 96.4314L251.593 96.393C251.583 95.9387 251.579 95.4844 251.579 95.0301ZM251.753 90.5028L249.681 90.3303C249.625 91.0088 249.583 91.6885 249.555 92.3688L251.632 92.4562C251.659 91.8043 251.699 91.153 251.753 90.5028ZM252.058 76.5686L252.268 74.58L254.335 74.7983L254.125 76.787L252.058 76.5686ZM252.28 86.6658L250.243 86.2479C250.105 86.925 249.991 87.6067 249.9 88.2917L251.961 88.5682C252.048 87.9144 252.154 87.2781 252.28 86.6658ZM303.434 62.2353C303.461 62.0502 303.589 61.8194 303.837 61.5086L302.205 60.2175C301.878 60.6323 301.487 61.2009 301.379 61.9172C301.349 62.0986 301.334 62.2822 301.333 62.466H303.412C303.412 62.3954 303.42 62.3215 303.434 62.2353ZM306.421 55.8119C306.487 55.3794 306.539 54.9386 306.573 54.4958L304.5 54.3398C304.458 54.8878 304.386 55.433 304.284 55.973L306.324 56.3691C306.361 56.1819 306.393 55.9959 306.421 55.8119ZM305.228 59.679C305.459 59.2122 305.664 58.7195 305.837 58.2153L303.869 57.5417C303.727 57.9574 303.558 58.3637 303.365 58.758C303.334 58.82 303.3 58.8801 303.262 58.9378L305.017 60.0501C305.096 59.9275 305.167 59.8027 305.228 59.679ZM304.468 63.8778C304.378 63.8123 304.293 63.7426 304.21 63.675L304.07 63.5638C303.981 63.4913 303.895 63.4136 303.815 63.331L302.324 64.7811C302.453 64.9142 302.594 65.0421 302.765 65.1824L302.9 65.2905C303.01 65.3799 303.122 65.4704 303.239 65.5556L303.243 65.5504L303.336 65.6221C303.556 65.7521 303.77 65.9132 303.972 66.1003L305.386 64.5774C305.111 64.3218 304.811 64.0944 304.49 63.8986L304.468 63.8778ZM305.631 69.0371L307.637 68.4892C307.442 67.7654 307.161 67.0677 306.799 66.4112L304.982 67.4206C305.252 67.9081 305.472 68.4528 305.631 69.0371ZM307.421 94.4542C307.413 95.109 307.394 95.7637 307.366 96.4179L309.443 96.5073C309.472 95.8378 309.492 95.1601 309.5 94.4791L307.421 94.4542ZM307.099 100.348L309.169 100.536C309.228 99.89 309.282 99.2164 309.33 98.5241L307.255 98.3816C307.211 99.0379 307.159 99.6936 307.099 100.348ZM305.945 71.4239C305.945 71.8137 305.921 72.2067 305.874 72.5913L307.937 72.845C308.026 72.1198 308.047 71.3878 307.999 70.6588L305.924 70.797C305.937 71.0029 305.945 71.2129 305.945 71.4239ZM307.412 92.4936L309.491 92.4489C309.476 91.7681 309.446 91.0877 309.402 90.4082L307.327 90.5465C307.37 91.189 307.398 91.8397 307.412 92.4936ZM307.15 88.6161L309.212 88.3624C309.129 87.6767 309.021 86.9943 308.888 86.3166L306.849 86.723C306.966 87.3052 307.066 87.9424 307.15 88.6161ZM308.376 84.2759C308.273 83.9438 308.159 83.6154 308.032 83.2915L308.004 82.6137L305.927 82.701L305.97 83.7364L306.037 83.9038C306.166 84.2198 306.284 84.5504 306.393 84.8955L308.376 84.2759ZM306.658 104.274L308.718 104.548C308.798 103.947 308.883 103.274 308.965 102.546L306.898 102.312C306.819 103.026 306.737 103.684 306.658 104.274ZM305.752 78.7091L307.829 78.6239L307.913 80.6177L305.835 80.703L305.752 78.7091ZM305.589 74.7224L307.666 74.6351L307.749 76.6289L305.673 76.7163L305.589 74.7224Z" fill="white"/>
<path d="M238.858 145.383V135.583H240.37V143.927H244.962V145.383H238.858ZM249.906 145.523C249.187 145.523 248.543 145.36 247.974 145.033C247.414 144.697 246.97 144.245 246.644 143.675C246.317 143.097 246.154 142.439 246.154 141.701C246.154 140.964 246.317 140.311 246.644 139.741C246.97 139.163 247.414 138.71 247.974 138.383C248.543 138.047 249.187 137.879 249.906 137.879C250.615 137.879 251.25 138.047 251.81 138.383C252.379 138.71 252.827 139.163 253.154 139.741C253.48 140.311 253.644 140.964 253.644 141.701C253.644 142.439 253.48 143.097 253.154 143.675C252.827 144.245 252.379 144.697 251.81 145.033C251.25 145.36 250.615 145.523 249.906 145.523ZM249.906 144.207C250.344 144.207 250.736 144.1 251.082 143.885C251.427 143.661 251.698 143.363 251.894 142.989C252.09 142.607 252.183 142.177 252.174 141.701C252.183 141.216 252.09 140.787 251.894 140.413C251.698 140.031 251.427 139.732 251.082 139.517C250.736 139.303 250.344 139.195 249.906 139.195C249.467 139.195 249.07 139.307 248.716 139.531C248.37 139.746 248.1 140.045 247.904 140.427C247.708 140.801 247.614 141.225 247.624 141.701C247.614 142.177 247.708 142.607 247.904 142.989C248.1 143.363 248.37 143.661 248.716 143.885C249.07 144.1 249.467 144.207 249.906 144.207ZM257.665 145.523C257.049 145.523 256.494 145.416 255.999 145.201C255.504 144.987 255.094 144.669 254.767 144.249L255.747 143.409C256.027 143.736 256.33 143.974 256.657 144.123C256.993 144.263 257.371 144.333 257.791 144.333C257.959 144.333 258.113 144.315 258.253 144.277C258.402 144.231 258.528 144.165 258.631 144.081C258.743 143.997 258.827 143.899 258.883 143.787C258.939 143.666 258.967 143.535 258.967 143.395C258.967 143.153 258.878 142.957 258.701 142.807C258.608 142.742 258.458 142.672 258.253 142.597C258.057 142.513 257.8 142.429 257.483 142.345C256.942 142.205 256.498 142.047 256.153 141.869C255.808 141.692 255.542 141.491 255.355 141.267C255.215 141.09 255.112 140.899 255.047 140.693C254.982 140.479 254.949 140.245 254.949 139.993C254.949 139.685 255.014 139.405 255.145 139.153C255.285 138.892 255.472 138.668 255.705 138.481C255.948 138.285 256.228 138.136 256.545 138.033C256.872 137.931 257.217 137.879 257.581 137.879C257.926 137.879 258.267 137.926 258.603 138.019C258.948 138.113 259.266 138.248 259.555 138.425C259.844 138.603 260.087 138.813 260.283 139.055L259.457 139.965C259.28 139.788 259.084 139.634 258.869 139.503C258.664 139.363 258.454 139.256 258.239 139.181C258.024 139.107 257.828 139.069 257.651 139.069C257.455 139.069 257.278 139.088 257.119 139.125C256.96 139.163 256.825 139.219 256.713 139.293C256.61 139.368 256.531 139.461 256.475 139.573C256.419 139.685 256.391 139.811 256.391 139.951C256.4 140.073 256.428 140.189 256.475 140.301C256.531 140.404 256.606 140.493 256.699 140.567C256.802 140.642 256.956 140.721 257.161 140.805C257.366 140.889 257.628 140.969 257.945 141.043C258.412 141.165 258.794 141.3 259.093 141.449C259.401 141.589 259.644 141.753 259.821 141.939C260.008 142.117 260.138 142.322 260.213 142.555C260.288 142.789 260.325 143.05 260.325 143.339C260.325 143.759 260.204 144.137 259.961 144.473C259.728 144.8 259.41 145.057 259.009 145.243C258.608 145.43 258.16 145.523 257.665 145.523ZM265.344 145.523C264.588 145.523 263.916 145.365 263.328 145.047C262.75 144.721 262.292 144.277 261.956 143.717C261.63 143.157 261.466 142.513 261.466 141.785C261.466 141.207 261.56 140.679 261.746 140.203C261.933 139.727 262.19 139.317 262.516 138.971C262.852 138.617 263.249 138.346 263.706 138.159C264.173 137.963 264.677 137.865 265.218 137.865C265.694 137.865 266.138 137.959 266.548 138.145C266.959 138.323 267.314 138.57 267.612 138.887C267.92 139.205 268.154 139.583 268.312 140.021C268.48 140.451 268.56 140.922 268.55 141.435L268.536 142.051H262.53L262.208 140.903H267.29L267.08 141.141V140.805C267.052 140.497 266.95 140.222 266.772 139.979C266.595 139.737 266.371 139.545 266.1 139.405C265.83 139.265 265.536 139.195 265.218 139.195C264.714 139.195 264.29 139.293 263.944 139.489C263.599 139.676 263.338 139.956 263.16 140.329C262.983 140.693 262.894 141.146 262.894 141.687C262.894 142.201 263.002 142.649 263.216 143.031C263.431 143.405 263.734 143.694 264.126 143.899C264.518 144.105 264.971 144.207 265.484 144.207C265.848 144.207 266.184 144.147 266.492 144.025C266.81 143.904 267.15 143.685 267.514 143.367L268.242 144.389C268.018 144.613 267.743 144.809 267.416 144.977C267.099 145.145 266.758 145.281 266.394 145.383C266.04 145.477 265.69 145.523 265.344 145.523ZM276.491 145.383L273.369 135.583H274.979L276.869 141.715C276.925 141.865 276.977 142.042 277.023 142.247C277.07 142.443 277.112 142.644 277.149 142.849C277.187 143.055 277.219 143.246 277.247 143.423C277.285 143.601 277.317 143.745 277.345 143.857L276.939 143.843C277.079 143.349 277.187 142.966 277.261 142.695C277.345 142.425 277.411 142.219 277.457 142.079C277.504 141.93 277.546 141.804 277.583 141.701L279.347 137.277H280.705L282.413 141.701C282.507 141.925 282.586 142.149 282.651 142.373C282.726 142.588 282.791 142.807 282.847 143.031C282.903 143.246 282.964 143.475 283.029 143.717L282.665 143.815C282.712 143.563 282.745 143.367 282.763 143.227C282.791 143.078 282.815 142.957 282.833 142.863C282.852 142.77 282.871 142.681 282.889 142.597C282.908 142.504 282.936 142.387 282.973 142.247C283.02 142.107 283.081 141.916 283.155 141.673L285.017 135.583H286.641L283.519 145.383H282.469L279.879 139.251L280.005 139.307L277.513 145.383H276.491ZM291.061 145.523C290.305 145.523 289.633 145.365 289.045 145.047C288.466 144.721 288.009 144.277 287.673 143.717C287.346 143.157 287.183 142.513 287.183 141.785C287.183 141.207 287.276 140.679 287.463 140.203C287.65 139.727 287.906 139.317 288.233 138.971C288.569 138.617 288.966 138.346 289.423 138.159C289.89 137.963 290.394 137.865 290.935 137.865C291.411 137.865 291.854 137.959 292.265 138.145C292.676 138.323 293.03 138.57 293.329 138.887C293.637 139.205 293.87 139.583 294.029 140.021C294.197 140.451 294.276 140.922 294.267 141.435L294.253 142.051H288.247L287.925 140.903H293.007L292.797 141.141V140.805C292.769 140.497 292.666 140.222 292.489 139.979C292.312 139.737 292.088 139.545 291.817 139.405C291.546 139.265 291.252 139.195 290.935 139.195C290.431 139.195 290.006 139.293 289.661 139.489C289.316 139.676 289.054 139.956 288.877 140.329C288.7 140.693 288.611 141.146 288.611 141.687C288.611 142.201 288.718 142.649 288.933 143.031C289.148 143.405 289.451 143.694 289.843 143.899C290.235 144.105 290.688 144.207 291.201 144.207C291.565 144.207 291.901 144.147 292.209 144.025C292.526 143.904 292.867 143.685 293.231 143.367L293.959 144.389C293.735 144.613 293.46 144.809 293.133 144.977C292.816 145.145 292.475 145.281 292.111 145.383C291.756 145.477 291.406 145.523 291.061 145.523ZM296.072 145.383V138.033H297.514V145.383H296.072ZM296.772 136.409C296.464 136.409 296.226 136.33 296.058 136.171C295.89 136.013 295.806 135.789 295.806 135.499C295.806 135.229 295.89 135.009 296.058 134.841C296.236 134.673 296.474 134.589 296.772 134.589C297.08 134.589 297.318 134.669 297.486 134.827C297.654 134.986 297.738 135.21 297.738 135.499C297.738 135.77 297.65 135.989 297.472 136.157C297.304 136.325 297.071 136.409 296.772 136.409ZM303.021 148.603C302.498 148.603 301.975 148.519 301.453 148.351C300.939 148.193 300.524 147.983 300.207 147.721L300.739 146.601C300.925 146.741 301.145 146.863 301.397 146.965C301.649 147.077 301.915 147.161 302.195 147.217C302.475 147.283 302.75 147.315 303.021 147.315C303.534 147.315 303.963 147.231 304.309 147.063C304.654 146.895 304.915 146.648 305.093 146.321C305.27 145.995 305.359 145.589 305.359 145.103V143.689L305.513 143.787C305.466 144.077 305.312 144.357 305.051 144.627C304.799 144.889 304.481 145.103 304.099 145.271C303.716 145.439 303.324 145.523 302.923 145.523C302.223 145.523 301.597 145.36 301.047 145.033C300.505 144.697 300.076 144.245 299.759 143.675C299.441 143.097 299.283 142.439 299.283 141.701C299.283 140.964 299.437 140.311 299.745 139.741C300.062 139.163 300.491 138.71 301.033 138.383C301.583 138.047 302.199 137.879 302.881 137.879C303.161 137.879 303.431 137.917 303.693 137.991C303.954 138.057 304.197 138.155 304.421 138.285C304.645 138.407 304.845 138.542 305.023 138.691C305.2 138.841 305.345 138.999 305.457 139.167C305.569 139.335 305.639 139.494 305.667 139.643L305.359 139.755V138.033H306.801V144.935C306.801 145.523 306.712 146.041 306.535 146.489C306.367 146.947 306.119 147.329 305.793 147.637C305.466 147.955 305.069 148.193 304.603 148.351C304.136 148.519 303.609 148.603 303.021 148.603ZM303.077 144.193C303.534 144.193 303.94 144.086 304.295 143.871C304.649 143.657 304.925 143.363 305.121 142.989C305.317 142.616 305.415 142.187 305.415 141.701C305.415 141.216 305.312 140.787 305.107 140.413C304.911 140.031 304.635 139.732 304.281 139.517C303.935 139.303 303.534 139.195 303.077 139.195C302.629 139.195 302.227 139.307 301.873 139.531C301.527 139.746 301.252 140.045 301.047 140.427C300.851 140.801 300.753 141.225 300.753 141.701C300.753 142.177 300.851 142.607 301.047 142.989C301.252 143.363 301.527 143.657 301.873 143.871C302.227 144.086 302.629 144.193 303.077 144.193ZM308.822 145.383V135.023H310.264V139.545L310.012 139.713C310.106 139.387 310.288 139.088 310.558 138.817C310.829 138.537 311.151 138.313 311.524 138.145C311.898 137.968 312.28 137.879 312.672 137.879C313.232 137.879 313.699 137.991 314.072 138.215C314.446 138.43 314.726 138.761 314.912 139.209C315.099 139.657 315.192 140.222 315.192 140.903V145.383H313.75V141.001C313.75 140.581 313.694 140.236 313.582 139.965C313.47 139.685 313.298 139.485 313.064 139.363C312.831 139.233 312.542 139.177 312.196 139.195C311.916 139.195 311.66 139.242 311.426 139.335C311.193 139.419 310.988 139.541 310.81 139.699C310.642 139.858 310.507 140.045 310.404 140.259C310.311 140.465 310.264 140.689 310.264 140.931V145.383H309.55C309.429 145.383 309.308 145.383 309.186 145.383C309.065 145.383 308.944 145.383 308.822 145.383ZM318.059 145.383V136.157H319.501V145.383H318.059ZM316.533 139.433V138.033H321.209V139.433H316.533Z" fill="white"/>
</svg>
