<svg width="303" height="76" viewBox="0 0 303 76" fill="none" xmlns="http://www.w3.org/2000/svg">
<rect width="303" height="76" rx="4" fill="#FAFAFA"/>
<path d="M101.228 50L100.172 47.376L106.7 40.24C107.063 39.8347 107.457 39.376 107.884 38.864C108.311 38.352 108.727 37.8293 109.132 37.296C109.537 36.7413 109.857 36.208 110.092 35.696C110.348 35.184 110.476 34.7147 110.476 34.288C110.476 33.8613 110.38 33.488 110.188 33.168C109.996 32.848 109.719 32.6027 109.356 32.432C108.993 32.24 108.535 32.144 107.98 32.144C107.489 32.144 107.02 32.272 106.572 32.528C106.124 32.7627 105.697 33.136 105.292 33.648C104.908 34.16 104.545 34.7893 104.204 35.536L100.172 33.36C100.62 32.1227 101.249 31.0347 102.06 30.096C102.892 29.136 103.863 28.4 104.972 27.888C106.081 27.3547 107.265 27.088 108.524 27.088C109.847 27.1093 111.041 27.3973 112.108 27.952C113.175 28.4853 114.017 29.2427 114.636 30.224C115.276 31.184 115.596 32.3147 115.596 33.616C115.596 34.064 115.543 34.5333 115.436 35.024C115.329 35.5147 115.169 36.0267 114.956 36.56C114.743 37.072 114.455 37.6267 114.092 38.224C113.751 38.8 113.335 39.408 112.844 40.048C112.353 40.688 111.777 41.3707 111.116 42.096L106.028 47.632L105.388 45.2H116.588V50H101.228ZM120.967 50.352C120.092 50.352 119.41 50.1067 118.919 49.616C118.45 49.1253 118.215 48.4213 118.215 47.504C118.215 46.6507 118.471 45.9573 118.983 45.424C119.495 44.8907 120.156 44.624 120.967 44.624C121.842 44.624 122.524 44.88 123.015 45.392C123.506 45.8827 123.751 46.5867 123.751 47.504C123.751 48.336 123.495 49.0187 122.983 49.552C122.471 50.0853 121.799 50.352 120.967 50.352ZM126.978 50L125.922 47.376L132.45 40.24C132.813 39.8347 133.207 39.376 133.634 38.864C134.061 38.352 134.477 37.8293 134.882 37.296C135.287 36.7413 135.607 36.208 135.842 35.696C136.098 35.184 136.226 34.7147 136.226 34.288C136.226 33.8613 136.13 33.488 135.938 33.168C135.746 32.848 135.469 32.6027 135.106 32.432C134.743 32.24 134.285 32.144 133.73 32.144C133.239 32.144 132.77 32.272 132.322 32.528C131.874 32.7627 131.447 33.136 131.042 33.648C130.658 34.16 130.295 34.7893 129.954 35.536L125.922 33.36C126.37 32.1227 126.999 31.0347 127.81 30.096C128.642 29.136 129.613 28.4 130.722 27.888C131.831 27.3547 133.015 27.088 134.274 27.088C135.597 27.1093 136.791 27.3973 137.858 27.952C138.925 28.4853 139.767 29.2427 140.386 30.224C141.026 31.184 141.346 32.3147 141.346 33.616C141.346 34.064 141.293 34.5333 141.186 35.024C141.079 35.5147 140.919 36.0267 140.706 36.56C140.493 37.072 140.205 37.6267 139.842 38.224C139.501 38.8 139.085 39.408 138.594 40.048C138.103 40.688 137.527 41.3707 136.866 42.096L131.778 47.632L131.138 45.2H142.338V50H126.978ZM153.405 50.32C151.4 50.32 149.682 49.8613 148.253 48.944C146.845 48.0267 145.768 46.7147 145.021 45.008C144.274 43.28 143.901 41.2107 143.901 38.8C143.901 36.3893 144.274 34.3307 145.021 32.624C145.768 30.896 146.845 29.5733 148.253 28.656C149.682 27.7387 151.4 27.28 153.405 27.28C155.41 27.28 157.128 27.7387 158.557 28.656C159.986 29.5733 161.074 30.896 161.821 32.624C162.568 34.3307 162.941 36.3893 162.941 38.8C162.941 41.2107 162.568 43.28 161.821 45.008C161.074 46.7147 159.986 48.0267 158.557 48.944C157.128 49.8613 155.41 50.32 153.405 50.32ZM153.405 45.712C154.792 45.712 155.858 45.1147 156.605 43.92C157.373 42.7253 157.757 41.0187 157.757 38.8C157.757 36.5173 157.373 34.768 156.605 33.552C155.858 32.3147 154.792 31.696 153.405 31.696C152.018 31.696 150.941 32.3147 150.173 33.552C149.426 34.768 149.053 36.5173 149.053 38.8C149.053 41.0187 149.426 42.7253 150.173 43.92C150.941 45.1147 152.018 45.712 153.405 45.712Z" fill="#1E1E1E"/>
<path d="M176.402 46.88L175.222 44.48L180.182 39.38H184.402L176.402 46.88ZM173.322 50V35.2H176.522V50H173.322ZM180.522 50L176.782 45.16L179.042 43.4L184.302 50H180.522ZM185.822 50V39.38H188.862L188.962 41.3L188.542 41.32C188.702 40.9733 188.902 40.6667 189.142 40.4C189.395 40.1333 189.675 39.9133 189.982 39.74C190.302 39.5533 190.629 39.4133 190.962 39.32C191.309 39.2267 191.655 39.18 192.002 39.18C192.522 39.18 192.995 39.26 193.422 39.42C193.849 39.58 194.222 39.84 194.542 40.2C194.862 40.5467 195.115 41.02 195.302 41.62L194.802 41.58L194.962 41.26C195.135 40.94 195.355 40.6533 195.622 40.4C195.902 40.1333 196.209 39.9133 196.542 39.74C196.875 39.5533 197.222 39.4133 197.582 39.32C197.942 39.2267 198.289 39.18 198.622 39.18C199.462 39.18 200.162 39.3467 200.722 39.68C201.282 40 201.702 40.4867 201.982 41.14C202.275 41.7933 202.422 42.5867 202.422 43.52V50H199.202V43.78C199.202 43.3533 199.142 43 199.022 42.72C198.902 42.44 198.722 42.2333 198.482 42.1C198.255 41.9533 197.969 41.88 197.622 41.88C197.342 41.88 197.082 41.9267 196.842 42.02C196.615 42.1133 196.415 42.24 196.242 42.4C196.082 42.56 195.955 42.7467 195.862 42.96C195.769 43.1733 195.722 43.4133 195.722 43.68V50H192.502V43.76C192.502 43.36 192.442 43.02 192.322 42.74C192.202 42.46 192.022 42.2467 191.782 42.1C191.542 41.9533 191.262 41.88 190.942 41.88C190.662 41.88 190.402 41.9267 190.162 42.02C189.935 42.1133 189.735 42.24 189.562 42.4C189.402 42.56 189.275 42.7467 189.182 42.96C189.089 43.1733 189.042 43.4067 189.042 43.66V50H185.822Z" fill="#FFDE1A"/>
</svg>
